<?xml version="1.0" encoding="UTF-8"?>
<svg version="1.1" viewBox="0 0 1600 1600" width="1280" height="1280" xmlns="http://www.w3.org/2000/svg">
<path transform="translate(1149,64)" d="m0 0h24l27 5 26 8 16 6 28 13 30 14 24 11 22 12 17 10 19 13 13 10 8 7 6 9 1 2v9l-6 9-8 3-6-1-9-6-10-9-18-13-25-15-27-14-28-13-29-14-15-7-17-6-25-7-16-2h-19l-11 3-13 9-8 8-1 2h-2l-2 4-12 13-12 14-8 9-4 6h-2l-2 4-10 11-10 13-8 8-6 8 11 13 10 13 14 20 16 26 6 10 4-1 18-13 18-14 16-13 8-7 10-9 17-14 13-8 14-5h28l15 5 19 10 22 15 20 15 11 7 15 10 20 13 22 14 16 11 17 13 14 12 12 13 6 10 1 3v7l-4 8-7 4h-8l-7-4-16-17-9-9-17-13-17-11-19-12-29-19-30-20-19-14-14-9-12-6-14-3h-8l-12 5-20 16-11 10-14 11-12 10-11 8-13 10-15 11-4 4 4 14 3 16 4 40 17-9 22-12 34-17 28-12 25-9 14-2 2-1h10l19 3 13 5 19 11 16 12 13 11 11 9 7 7 8 7 42 42 7 8 14 17 13 17 6 10 1 6-6 9-3 3-5 1h-8l-6-3-8-9-9-13-13-17-12-14-23-23-8-7-14-12-14-13-14-11-13-10-14-8-11-4h-20l-8 2-18 6-18 8-33 16-27 14-23 13-13 7h-2l-4 27-4 16-8 27 13-4 20-8 28-8 12-3 9-1h24l13 3 11 6 11 8 24 24 7 8 12 13 4 3 16-3 64-16 44-10h9l2 6 1 8v10l-4 13-8 19v6l4 6 11 6 3 6 1 7 1 30-3 5-11 9-2 3v8l1 4 16 3 4 6 2 16v21l-4 4-6 5-1 2v7l4 5 10 7 2 15 8 79 9 106 9 97 3 36 6 67 7 75 7 79 5 57 4 46 1 16v20l-1 1h-9l-7-2-5 1-6 4-5 6-3 2-10 3-9 2h-7l-12-6-8-5-8-1-5 4-12 19-5 6-9 4-34 12-37 12-43 15-22 8-24 8-5-1-5-2h-3l-15-24-12-19-7-8-2-1h-7l-5 4-3 11-3 19-4 8h-5l-8-7-5-5-7-2-7 3-6 1-16-4-7-3-6-10-3-3-10-1-6 4-4 3-75-20-48-13-16-5-5 2-32 9-26 7-29 7-5-1-9-10-3-2h-10l-3 3-5 18-2 2-8 3h-8l-13-8-4-2h-8l-5 6-8 15-2 2h-10l-4-4-8-14-6-5-6 1-6 5-5 18-3 9-11 4-63 17-8 1-4-3h-4l-3 3-15-2-41-10-86-20-60-14-126-30-36-8-10-4-2-4v-41l1-32 1-14 2-8 8-6 15-10 5-6v-6l-4-6-12-11-9-7-4-5v-75l2-57 1-53 1-93 3-122 1-85 2-63 1-40 1-21 7-8 10-8 2-4v-9l-8-11-9-11-2-4v-22l-1-9-4 4-7 10-16 25-10 17-13 24-10 17-5 5h-13l-6-5-3-6v-9l6-15 13-23 12-20 14-22 13-19 9-13 11-15 12-17 8-11 10-14 9-12 13-18 8-11 9-10 8-7 12-6 7-2h29l35 5 15 3 36 6 24 5 8 1-2-21v-29l2-37 4-33-1-4-10-5-28-11-28-12-30-13-19-8-26-10-16-5h-6l-8 5-10 17-8 12-10 13-8 10-10 13-10 12-10 13-15 20-10 13-10 14-12 17-10 15-14 23-6 6h-16l-5-5-2-5 1-11 8-16 6-10 8-12 20-28 13-17 21-28 20-25 10-13 9-12 10-15 11-18 7-9 9-7 8-4 8-1 23 1 25 9 29 12 22 10 49 21 29 13 3-1 15-30v-5l-11-15-13-16-7-8-11-12-7-8-9-10-7-8-12-13-9-11-13-14-9-11-9-8-6-3h-18l-13 4-15 6-32 16-27 16-23 15-21 14-17 12-19 14-13 10-14 11-26 22-8 8-8 7-9 8-6 2-9-1-7-7-3-5 3-9 5-9 18-18 22-18 25-20 16-12 14-10 11-8 16-11 15-10 22-14 22-13 23-12 16-8 20-8 13-4 16-3 10 1 13 3 12 7 10 9 14 14 9 11 12 13 9 10 12 14 22 24 7 8 12 14 13 16v2l3-1 10-13 10-11 7-8 17-17 11-9 9-8 17-12 20-12 16-8 19-9 21-7 25-6 28-5 15-1h72l14 1 40 8 32 9 30 11 30 14 14 8 15 10 14 10 4-1 7-7 7-8 8-9 8-10 9-10 11-13 9-11 9-9 7-8 12-13 13-11 12-7 15-5zm-388 83-16 2-25 3-24 6-21 7-20 9-19 10-21 14-20 16-9 8v2l-3 1-7 8-12 12-10 13-7 9-12 17-10 17-5 11-9 29-5 23-2 13-3 43 3 39 6 27 8 22 10 22 13 23 8 12 13 16 23 23 15 10 13 6 10 1 11 4 9 3 5-2 5-4 13-17 13-5 12-3h12l8 4 8-1 10-8 11-9 24-8 1-4-11-7-10-7-10-13-5-10v-7l1-2h7l5 5 11 13 9 8 8 5h39l11-8 2-4 4-2 7-8 5-5 5 1 3 3v6l-2 4 1 5 4 2h6l1-1h10l7 2 31 3 30 4 11 2 20 2 34 4 11 2 19 1 8-7 4-5 7-10 6-11 8-14 9-19 10-26 6-21 4-24 1-5v-37l-4-31-5-20-8-21-11-22-11-18-10-15-9-12-12-14-13-13-11-9-15-11-18-11-22-12-21-9-22-8-21-6-28-6-23-3-5-1-16-1zm-430 325-9 6-7 7-12 17-18 24-12 17-13 18-5 8 1 4 8 3 65 15 38 9 54 13 29 7 33 8 9 2h5l9-12 11-12 11-8 4-3-2-4-8-12-7-11-10-18-8-15-12-28-4-9-4-4-28-6-52-9-46-7zm868 39-15 2-17 4-33 11-27 11-7 3-11 3-6 4-4 6-4 7-5 10 2 3 22 3 14 2 33 3 7-1 18-5 36-8 45-11 8-3-2-4-7-8-11-12-12-12-7-4-8-3zm-651 112-6 4-10 10v2l9 2v2h2l2 4 7 6 5-1 8-7 7-8-1-4-14-10z" fill="#C8F0FA"/>
<path transform="translate(254,571)" d="m0 0 10 4 65 15 38 9 54 13 29 7 33 8 13 3-8 15-13 27-12 29-2 7-5-1-21-10-11-3-6-1h-22l-14 3-16 7-10 8-10 10-8 13-5 11-3 11-1 7v21l4 15 8 16 9 12 7 7 14 8 14 6 7 2 10 1h12l14-2 13-5 16-9 11-10 9-13 6-13 3-9 1-6v-26l-2-10-1-2v-7l1-2h2l4 11v2l16-8 24-11 10-5 9-3 1-1v-67l-1-4 6 2 1 66 47-17 40-12 37-9 7 1-1 2-39 10-8 2-26 8-26 9-15 6-15 5h-2l2 16v12l24-2 19-2h10l2-6 5-5 10-4 16-4 11-6 11-7 8-4 7-2h13l20 4 30 8 23 4h9l21-7 24-12 26-10 13-4h24l10 2 17 6 9 7 10 10 8 14 2 16v9l-5 9-8 11-9 10-8 9-5 10-1 3v12l6 17 1 1h42l3 1 3-19 4-7 10-6 25-8 12-6 16-10 10-4 6-1h14l15 2 4 7 6 21 5 17 4 7 9 4 8-1 5-2 2-4 2-5v-11l-6-25-3-7-2-9-15-43-5-10-5-13-5-10-3-7-2-6 8 1 25 7 45 14 12 5-11-72-6-38-1-8v-10l5-1 2 17 13 89 3 24 12 5 33 14 30 15 16 10h8l15-3h8l19 3 13 5 13 8 13 10 11 7 7 2h13l19-7 4-1h8l8 4 7 8 3 9v9l-7 21-6 10-7 7-5 2-8-1-13-4v-2l-12 1-7 1v2l-5 3-6 8-8 14-5 4-8 2v7l1 5v9h-2l-3-12v-9l-26-5-9 1-10 5-5 4-8 13v17l1 6v17l-4 10-5 5-6 2-9-1-7-2-8 1-5 3-8 8-1 2v11l2 17v15l-5 7-11 6 3 38 2 20 11 1 6-1 17-2 91-7 9-1-1-50-4-53-3-25v-10l-6-2-4-8 1-7 4-6 4-4 2-1 14-1 20-6 6 1 1 6-2 4-26 13-7 6-3 4v10l1 10 1 2 42 1v1l-42 3 2 18 3 43 1 24v27h2v2h5v1l-7 1h-4-3l-24 2-5 1-39 3-18 2-33 2 2 6 2 4v11l-5 6-9 4 1 20 2 34h8l10-6 11-10 10-6 2-1h9l12 4 9 7 9 11 8 14 1 5h10l6-1h11v1l-23 3-8 3-12 9-4 5-6 21-9 14-11 12-13 10-14 7-10 2-1 47-1 2h-2l-1-9-1-41-12-6-9-8-7-8-9-6-10-1-2 16-3 43-1 7 27-4 15-2 11-1-1 2-29 5-22 3-3 2h-10l-33 4-61 7-38 3-31 3-14 1-5 1-41 2-2-1 1-4 43-2v-25l1-55h2l1 6v73l55-4 53-5 43-5 32-4h4v-17l2-35 2-13-15 5-15 6-4 1h-14l-7-3-5-5-3-6-1-9 3-6 10-8 8-5h2l-1-3 7-2 12-5 3-5 4-18 6-11 8-7 4-4v-20l-8 3-11 1-7-3-10-7-2-1-13-2-9-4-4-5 1-7 5-4h7l16 7 8 2 16-8 8-3h3l-1-8v-12l-3 1-39 3-27 2-32 1-10 4-6 5h-2l-2 4-5 7-5 15-1 5v23l3 30v16l-3 17-5 13-7 10-9 8-5 2-10-1-12-5-9-7-5-5-1-12-4 1-34 1h-18v-4l16-1h38l-4-15-6-15-6-10-5-5-7-3-28-3-9-3-3-21v-15l5-3 3-6v-16l-4-4-5 1-1 2-3-3 1-8-4-2-13-4-34-5-12-5-7-8-1-3v-12l3-5 5-3 8-2 25-2 16-5 5-3 2-5-3-24-2-17-3-3v-2l-4-2-11-11-25 2-28 1h-13l-4-1v-3l54-2 11-1 2-1-2-10 1-9 4-6 6-5 6-3h2l-2-11-3-37-1-3h-2l-2 4-4 10-5 17-7 10-10 6h-7l-8-5-5-8-4-14-3-23-4-10-7-6-12-4-31-5-10-3v26l-1 47h-3v-91l2-16v-24l-7-8-8-6-16-5h-21l-43 8h-14l-12-4-9-6-4-7-3-12-18 2-20 2-3 1h-9l1 28 1 10v61l7-1 19-6 23-5 9-4 8-14 6-9 4-3 3-1h10l9 5 5 4 7 10 4 10 2 7v14l-3 10-6 8-5 3h-12l-18-6-7-3h-20l-14 4-13 6-6 2-9 1v15l1 19v16l-1 4 18-4 28-11 34-14 17-5 20-3 13 1 17 4 20 8 12 7 4 2v2l5 2 19 14 9 8 7 11 3 8-2 10-3 3h-11l-8-5-7-6-2-1h-11l1 5v40l12 3 8 5 5 5 3 4 2 8-1 9-6 9-6 4-15 4v21l1 11 1 3-1 2v18l12 3 15 8 11 8 8 7 9 11 7 10 8 16 5 16 3 14-1 30-4 9-7 11-9 10-13 8-15 8-19 9 2 24 1 6-1 1h-32l-1-1-1 3 32 1 3 1 7 54 1 7-2 1-18-1-29-4-25-3-2-2-1 3-4 1v2l-9 4h-13l-12-7-9-6-8-3-14-3-30-8 7 81 6 71v5l-4 1-3 3-15-2-41-10-86-20-60-14-126-30-36-8-10-4-2-4v-41l1-32 1-14 2-8 8-6 15-10 5-6v-6l-4-6-12-11-9-7-4-5v-75l2-57 1-53 1-93 3-122 1-85 2-63 1-40 1-21 7-8 10-8 2-4v-9l-8-11-9-11-2-4v-22l-2-10 9-11z" fill="#D8DCDC"/>
<path transform="translate(1149,64)" d="m0 0h24l27 5 26 8 16 6 28 13 30 14 24 11 22 12 17 10 19 13 13 10 8 7 6 9 1 2v9l-6 9-8 3-6-1-9-6-10-9-18-13-25-15-27-14-28-13-29-14-15-7-17-6-25-7-16-2h-19l-11 3-13 9-8 8-1 2h-2l-2 4-12 13-12 14-8 9-4 6h-2l-2 4-10 11-10 13-8 8-6 8 11 13 10 13 14 20 16 26 6 10 4-1 18-13 18-14 16-13 8-7 10-9 17-14 13-8 14-5h28l15 5 19 10 22 15 20 15 11 7 15 10 20 13 22 14 16 11 17 13 14 12 12 13 6 10 1 3v7l-4 8-7 4h-8l-7-4-16-17-9-9-17-13-17-11-19-12-29-19-30-20-19-14-14-9-12-6-14-3h-8l-12 5-20 16-11 10-14 11-12 10-11 8-13 10-15 11-4 4 4 14 3 16 4 40 17-9 22-12 34-17 28-12 25-9 14-2 2-1h10l19 3 13 5 19 11 16 12 13 11 11 9 7 7 8 7 42 42 7 8 14 17 13 17 6 10 1 6-6 9-3 3-5 1h-8l-6-3-8-9-9-13-13-17-12-14-23-23-8-7-14-12-14-13-14-11-13-10-14-8-11-4h-20l-8 2-18 6-18 8-33 16-27 14-23 13-13 7h-2l-4 27-4 16-8 27 13-4 20-8 28-8 12-3 9-1h24l13 3 11 6 11 8 24 24 7 8 12 13 4 3 16-3 64-16 44-10h9l2 6 1 8v10l-4 13-8 19v6l4 6 11 6 3 6 1 7 1 30-3 5-11 9-2 3v8l1 4 16 3 4 6 2 16v21l-4 4-6 5-1 2v7l2 9-6 9-5 4-10 1-8-4-6-7-8-15-18-27-10-14-11-14-9-10-5-5-13-15-9-11-9-10-7-9v-2h-2l-7-8-10-13-8-8-9-11-9-9-3-5-18-20-12-12-7-4-8-3-9-1-15 2-17 4-33 11-27 11-7 3-11 3-5 3-4 6-4 7-5 10 1 2 22 3 14 2 33 3 1 1 4 32 9 57 5 32v7l-10-3-24-8-26-8-30-8 4 8 7 15 6 15 4 8 16 45 2 9 5 16 3 14v11l-3 6-4 4-3 2-8 1-10-5-5-10-7-25-4-13-2-3-15-2h-14l-12 3-11 6-13 8-10 5-23 7-10 6-3 6-3 17-1 2h-45l-3-4-5-15v-12l4-9 6-9 11-11 8-11 6-9 1-3v-9l-2-16-8-14-12-12-8-5-18-6-7-1h-24l-13 4-21 8-25 12-15 6-10 3h-9l-23-4-38-10-12-2h-13l-12 4-14 9-14 7-19 5-7 4-4 8-23 2-20 2h-10l-2-28 19-7 24-9 31-10 12-4 18-4 27-7-1-1-10 1-39 10-45 14-29 11-6 1-1-2v-65l10-9 5-6-1-4-13-9h-9l-6 4-9 9-1 2 7 1 2 1v2h2l8 10 1 2v67l-4 3-14 5-16 8-17 8-8 4h-2l-4-11v-2h-2v9l2 5 1 7v26l-3 12-5 12-7 12-11 12-10 7-15 8-14 4-9 1h-12l-14-2-15-6-13-7-10-9-8-10-8-14-5-15-1-5v-21l3-15 5-12 7-12 9-10 7-7 11-7 15-6 11-2h22l14 3 16 7 9 5 4 1 2-9 12-29 17-35 10-13 9-11 8-8 12-8-2-4-8-12-7-11-10-18-8-15-12-28-4-9-3-3-28-6-52-9-46-7h-20l-9 6-9 10-9 13-18 24-12 17-13 18-12 19-9 10-10 14-22 34-6 11-13 24-10 17-5 5h-13l-6-5-3-6v-9l6-15 13-23 12-20 14-22 13-19 9-13 11-15 12-17 8-11 10-14 9-12 13-18 8-11 9-10 8-7 12-6 7-2h29l35 5 15 3 36 6 24 5 8 1-2-21v-29l2-37 4-33-1-4-10-5-28-11-28-12-30-13-19-8-26-10-16-5h-6l-8 5-10 17-8 12-10 13-8 10-10 13-10 12-10 13-15 20-10 13-10 14-12 17-10 15-14 23-6 6h-16l-5-5-2-5 1-11 8-16 6-10 8-12 20-28 13-17 21-28 20-25 10-13 9-12 10-15 11-18 7-9 9-7 8-4 8-1 23 1 25 9 29 12 22 10 49 21 29 13 3-1 15-30v-5l-11-15-13-16-7-8-11-12-7-8-9-10-7-8-12-13-9-11-13-14-9-11-9-8-6-3h-18l-13 4-15 6-32 16-27 16-23 15-21 14-17 12-19 14-13 10-14 11-26 22-8 8-8 7-9 8-6 2-9-1-7-7-3-5 3-9 5-9 18-18 22-18 25-20 16-12 14-10 11-8 16-11 15-10 22-14 22-13 23-12 16-8 20-8 13-4 16-3 10 1 13 3 12 7 10 9 14 14 9 11 12 13 9 10 12 14 22 24 7 8 12 14 13 16v2l3-1 10-13 10-11 7-8 17-17 11-9 9-8 17-12 20-12 16-8 19-9 21-7 25-6 28-5 15-1h72l14 1 40 8 32 9 30 11 30 14 14 8 15 10 14 10 4-1 7-7 7-8 8-9 8-10 9-10 11-13 9-11 9-9 7-8 12-13 13-11 12-7 15-5zm-388 83-16 2-25 3-24 6-21 7-20 9-19 10-21 14-20 16-9 8v2l-3 1-7 8-12 12-10 13-7 9-12 17-10 17-5 11-9 29-5 23-2 13-3 43 3 39 6 27 8 22 10 22 13 23 8 12 13 16 23 23 15 10 13 6 10 1 11 4 9 3 5-2 5-4 13-17 13-5 12-3h12l8 4 8-1 10-8 11-9 24-8 1-4-11-7-10-7-10-13-5-10v-7l1-2h7l5 5 11 13 9 8 8 5h39l11-8 2-4 4-2 7-8 5-5 5 1 3 3v6l-2 4 1 5 4 2h6l1-1h10l7 2 31 3 30 4 11 2 20 2 34 4 11 2 19 1 8-7 4-5 7-10 6-11 8-14 9-19 10-26 6-21 4-24 1-5v-37l-4-31-5-20-8-21-11-22-11-18-10-15-9-12-12-14-13-13-11-9-15-11-18-11-22-12-21-9-22-8-21-6-28-6-23-3-5-1-16-1z" fill="#035460"/>
<path transform="translate(1146,582)" d="m0 0 1 4 14 95 3 20 1 11 12 5 33 14 30 15 16 10h8l15-3h8l19 3 13 5 13 8 13 10 11 7 7 2h13l19-7 4-1h8l8 4 7 8 3 9v9l-7 21-6 10-7 7-5 2-8-1-13-4v-2l-12 1-7 1v2l-5 3-6 8-8 14-5 4-8 2v7l1 5v9h-2l-3-12v-9l-26-5-9 1-10 5-5 4-8 13v17l1 6v17l-4 10-5 5-6 2-9-1-7-2-8 1-5 3-8 8-1 2v11l2 17v15l-5 7-11 6 3 38 2 20 11 1 6-1 17-2 91-7 9-1-1-50-4-53-3-25v-10l-6-2-4-8 1-7 4-6 4-4 2-1 14-1 20-6 6 1 1 6-2 4-26 13-7 6-3 4v10l1 10 1 2 42 1v1l-42 3 2 18 3 43 1 24v27h2v2h5v1l-7 1h-4-3l-24 2-5 1-39 3-18 2-33 2 2 6 2 4v11l-5 6-9 4 1 20 2 34h8l10-6 11-10 10-6 2-1h9l12 4 9 7 9 11 8 14 1 5h10l6-1h11v1l-23 3-8 3-12 9-4 5-6 21-9 14-11 12-13 10-14 7-10 2-1 47-1 2h-2l-1-9-1-41-12-6-9-8-7-8-9-6-10-1-2 16-3 43-1 7 27-4 15-2 11-1-1 2-29 5-22 3-3 2h-10l-33 4-61 7-38 3-31 3-14 1-5 1-41 2-2-1 1-4 43-2v-25l1-55h2l1 6v73l55-4 53-5 43-5 32-4h4v-17l2-35 2-13-15 5-15 6-4 1h-14l-7-3-5-5-3-6-1-9 3-6 10-8 8-5h2l-1-3 7-2 12-5 3-5 4-18 6-11 8-7 4-4v-20l-8 3-11 1-7-3-10-7-2-1-13-2-9-4-4-5 1-7 5-4h7l16 7 8 2 16-8 8-3h3l-1-8v-12l-3 1-39 3-27 2-32 1-10 4-6 5h-2l-2 4-5 7-5 15-1 5v23l3 30v16l-3 17-5 13-7 10-9 8-5 2-10-1-12-5-9-7-5-5-1-12-4 1-34 1h-18v-4l16-1h38l-4-15-6-15-6-10-5-5-7-3-28-3-9-3-3-21v-15l5-3 3-6v-16l-4-4-5 1-1 2-3-3 1-8-4-2-13-4-34-5-12-5-7-8-1-3v-12l3-5 5-3 8-2 25-2 16-5 5-3 2-5-3-24-2-17-3-3v-2l-4-2-11-11-25 2-28 1h-13l-4-1v-3l54-2 11-1 2-1-2-10 1-9 4-6 6-5 6-3h2l-2-11-3-37-1-3h-2l-2 4-4 10-5 17-7 10-10 6h-7l-8-5-5-8-4-14-3-23-4-10-7-6-12-4-31-5-10-3v26l-1 47h-3v-91l2-16v-24l-7-8-8-6-16-5h-21l-43 8h-14l-12-4-9-6-4-7-3-12-18 2-20 2-3 1h-9l1 28 1 10v61l7-1 19-6 23-5 9-4 8-14 6-9 4-3 3-1h10l9 5 5 4 7 10 4 10 2 7v14l-3 10-6 8-5 3h-12l-18-6-7-3h-20l-14 4-13 6-6 2-9 1v15l1 19v16l-1 4 4 1h-8l-2-56-3-6-2-1-1 12-1 43-1 3h-2l-1-7 2-44 3-18 2-8-40 2-54 4-29 2h-13l2-2 3-1 68-6 30-2 8-1 25-1v-75l-1-19-1-4-22 1 1-2 15-2 6-2 1-26-12 5-30 14-14 6-5 2 1 5v25l-3 16-7 16-7 10-9 10-14 10-15 7-15 4-5 1h-23l-16-4-12-5h-4l-5-6-9-7-9-10-8-13-6-14-3-13v-26l4-17 10-19 11-13 9-8 13-8 10-4 14-3h27l16 4 15 6 8 6v5l-4-1-21-10-11-3-6-1h-22l-14 3-16 7-10 8-10 10-8 13-5 11-3 11-1 7v21l4 15 8 16 9 12 7 7 14 8 14 6 7 2 10 1h12l14-2 13-5 16-9 11-10 9-13 6-13 3-9 1-6v-26l-2-10-1-2v-7l1-2h2l4 11v2l16-8 24-11 10-5 9-3 1-1v-67l-1-4 6 2 1 66 47-17 40-12 37-9 7 1-1 2-39 10-8 2-26 8-26 9-15 6-15 5h-2l2 16v12l24-2 19-2h10l2-6 5-5 10-4 16-4 11-6 11-7 8-4 7-2h13l20 4 30 8 23 4h9l21-7 24-12 26-10 13-4h24l10 2 17 6 9 7 10 10 8 14 2 16v9l-5 9-8 11-9 10-8 9-5 10-1 3v12l6 17 1 1h42l3 1 3-19 4-7 10-6 25-8 12-6 16-10 10-4 6-1h14l15 2 4 7 6 21 5 17 4 7 9 4 8-1 5-2 2-4 2-5v-11l-6-25-3-7-2-9-15-43-5-10-5-13-5-10-3-7-2-6 8 1 25 7 45 14 12 5-11-72-6-38-1-8v-10z" fill="#D8DCDC"/>
<path transform="translate(254,571)" d="m0 0 10 4 65 15 38 9 54 13 29 7 33 8 13 3-8 15-13 27-12 29-2 7h-1l-2-6-8-5-19-7-10-2h-27l-17 4-14 7-13 10-9 10-7 11-7 15-3 14v26l4 16 8 16 7 10 9 10 9 7 2 4-5 2-7 8-13 16-12 16-12 17-17 32-8 20-5 15-4 16-4 27-1 11v31l2 21 6 29 8 23 8 19 11 21 14 21 14 19 9 11 11 12 16 16 8 7 14 12 19 14 27 18 22 12 9 5 14 8 2 3-7 5-9 3-9-1-6-4-7-7-6-8-2-3-4 1-9 8-7 4-10 1-6-4-7-8-6-12v-2l-5 1-14 8-7 3h-16l-8-5-7-9-5-9-3-1 1 6 6 11 6 7 9 5h14l15-5 7-4h5l5 10 7 8 8 4h11l8-4 9-7 4 1 6 9 8 7 8 3h10l9-4 10-6h4v2l9 3 28 12 40 15 11 2 3 5 6 70 6 67 1 23-5 1-16-3-54-13-120-28-72-17-76-18-23-5-10-4-2-4v-41l1-32 1-14 2-8 8-6 15-10 5-6v-6l-4-6-12-11-9-7-4-5v-75l2-57 1-53 1-93 3-122 1-85 2-63 1-40 1-21 7-8 10-8 2-4v-9l-8-11-9-11-2-4v-22l-2-10 9-11z" fill="#08BEE1"/>
<path transform="translate(1149,64)" d="m0 0h24l27 5 26 8 16 6 28 13 30 14 24 11 22 12 17 10 19 13 13 10 8 7 6 9 1 2v9l-6 9-8 3-6-1-9-6-10-9-18-13-25-15-27-14-28-13-29-14-15-7-17-6-25-7-16-2h-19l-11 3-13 9-8 8-1 2h-2l-2 4-12 13-12 14-8 9-4 6h-2l-2 4-10 11-10 13-8 8-6 8 11 13 10 13 14 20 16 26 6 10 4-1 18-13 18-14 16-13 8-7 10-9 17-14 13-8 14-5h28l15 5 19 10 22 15 20 15 11 7 15 10 20 13 22 14 16 11 17 13 14 12 12 13 6 10 1 3v7l-4 8-7 4h-8l-7-4-16-17-9-9-17-13-17-11-19-12-29-19-30-20-19-14-14-9-12-6-14-3h-8l-12 5-20 16-11 10-14 11-12 10-11 8-13 10-15 11-4 4 4 14 3 16 4 40 17-9 22-12 34-17 28-12 25-9 14-2 2-1h10l19 3 13 5 19 11 16 12 13 11 11 9 7 7 8 7 42 42 7 8 14 17 13 17 6 10 1 6-6 9-3 3-5 1h-8l-6-3-8-9-9-13-13-17-12-14-23-23-8-7-14-12-14-13-14-11-13-10-14-8-11-4h-20l-8 2-18 6-18 8-33 16-27 14-23 13-13 7h-2l-4 27-4 16-8 27 13-4 20-8 28-8 12-3 9-1h24l13 3 11 6 11 8 24 24 7 8 12 13 4 3 16-3 64-16 44-10h9l2 6 1 8v10l-4 13-8 19v6l4 6 11 6 3 6 1 7 1 30-3 5-11 9-2 3v8l1 4 16 3 4 6 2 16v21l-4 4-6 5-1 2v7l2 9-6 9-5 4-10 1-8-4-6-7-8-15-18-27-10-14-11-14-9-10-5-5-13-15-9-11-9-10-7-9v-2h-2l-7-8-10-13-8-8-9-11-9-9-3-5-18-20-12-12-7-4-8-3-9-1-15 2-17 4-33 11-19 8-5-1-1-3-3-1-2-5h-2v-2h-2v-2l-4-2-7-6v-2l-4-2-8-8-4-3 1-7 7-19 6-23 3-19 1-5v-37l-4-31-5-20-8-21-11-22-11-18-10-15-9-12-12-14-12-12-11-9-15-11-18-11-22-12-21-9-22-8-21-6-28-6-23-3-5-1-16-1h-46l-16 2-25 3-24 6-21 7-20 9-19 10-21 14-20 16-8 7-5 6h-2l-2 4-13 13-10 13-7 9-12 17-10 17-5 11-9 29-5 23-2 13-3 43 3 39 1 8-3 4-7-2-6-6v-2l-4-2v-2l-4-2-5-4-4-6-2-6v-29l2-37 4-33-1-4-10-5-28-11-28-12-30-13-19-8-26-10-16-5h-6l-8 5-10 17-8 12-10 13-8 10-10 13-10 12-10 13-15 20-10 13-10 14-12 17-10 15-14 23-6 6h-16l-5-5-2-5 1-11 8-16 6-10 8-12 20-28 13-17 21-28 20-25 10-13 9-12 10-15 11-18 7-9 9-7 8-4 8-1 23 1 25 9 29 12 22 10 49 21 29 13 3-1 15-30v-5l-11-15-13-16-7-8-11-12-7-8-9-10-7-8-12-13-9-11-13-14-9-11-9-8-6-3h-18l-13 4-15 6-32 16-27 16-23 15-21 14-17 12-19 14-13 10-14 11-26 22-8 8-8 7-9 8-6 2-9-1-7-7-3-5 3-9 5-9 18-18 22-18 25-20 16-12 14-10 11-8 16-11 15-10 22-14 22-13 23-12 16-8 20-8 13-4 16-3 10 1 13 3 12 7 10 9 14 14 9 11 12 13 9 10 12 14 22 24 7 8 12 14 13 16v2l3-1 10-13 10-11 7-8 17-17 11-9 9-8 17-12 20-12 16-8 19-9 21-7 25-6 28-5 15-1h72l14 1 40 8 32 9 30 11 30 14 14 8 15 10 14 10 4-1 7-7 7-8 8-9 8-10 9-10 11-13 9-11 9-9 7-8 12-13 13-11 12-7 15-5z" fill="#035562"/>
<path transform="translate(1255,554)" d="m0 0 4 5 9 9 9 11 8 8 11 15 3 2v2h2l10 13 12 14 13 15 6 7v2l4 2 10 11 12 16 10 14 16 25 9 16 8 6 9 1 7-3 6-8 1-4-1-5 9 6 5 4 2 15 8 79 9 106 9 97 3 36 6 67 7 75 7 79 5 57 4 46 1 16v20l-1 1h-9l-7-2-5 1-6 4-5 6-3 2-10 3-9 2h-7l-12-6-8-5-8-1-5 4-12 19-5 6-9 4-34 12-37 12-43 15-22 8-24 8-5-1-3-2 1-10v-120l7-3 9-7 3-2 5 1 7 3 10-1 10-4 5-4 2-5-5 1-9 6-6 2h-9l-8-4-6 1-10 9-6 2-2-49v-19l16-8 17-10 19-12 16-11 15-11 10-8 9-7 17-16 4-5 8-7 10-10 9-11 9-10 6-9 8-11 7-10 10-19 8-15 10-25 7-25 4-20 2-24v-23l-3-27-4-19-6-22-10-25-8-16-10-17-12-17-12-15-5-7v-2h11l17 5 7-1 8-7 7-12 6-19v-9l-3-9-7-8-7-3h-8l-20 7-3 1h-13l-9-3-12-8-13-10-12-7-11-4-19-3h-8l-15 3h-8l-20-12-30-15-29-12-12-5-1-1-3-24-11-75-4-28 2-4 18-5 36-8 45-11z" fill="#08BFE2"/>
<path transform="translate(550,726)" d="m0 0h3v26l-7 3-15 2 21-1 2 5 1 19v54l-1 21-2 1-23 1-23 2-83 7-3 1h11l29-2 54-4 41-2-4 20-2 23-1 35h2l1-46 1-10 1-2 4 2 2 5 1 22v34l-3 1-14-1-23-4-16-3-14-1-10 5-7 8-10 17-7 8-10 6-9 2h-52l-19 2-1-4 2-17 3-31 6-40 3-15 3-4 8-1-10-1-3 3v9l-4 17-5 32-5 49-2 2-67 3v2l58-3h9l-1 7-5 10-1 4v9l5 13 2 5v69l5-1h8l4 1 62 2h36l-1-1-75-2-34-1-2-2-1-29v-33l5 2 10 6 12 5 22 4h12l32-5h10l12 4 8 6 4 6v12l-4 12-4 10v7l4 6 9 3 16 2 13 4 5 5 4 8 1 5v21l2 13 4 6 7 3 5 2 4 25 1 16 2 9 3 28 4 28 5 29v3h2l-9-59-3-25v-12l17 1 1 2 3 36 3 46 1 16-1 1h-10l-4-1-31-2-9-1h-13l3 1 42 4 9 1 3 1 2-1 9 2 2 25v10l-9-3-25-9-22-8-29-12-7-5-10-4-5-5-12-5-25-14-12-8-17-12-11-8-13-11-13-12-8-7-15-14-7-8-7-9-14-19-10-15-10-17-11-23-9-24-6-26-2-12-1-11v-34l5-38 3-5h4v-2h-4l1-8 5-16 11-26 9-16 6-12 12-16 10-13 4-4 2-4 9-11 5-5 4-6 6 1 12 5 13 3h23l17-4 12-5 12-7 11-9 9-11 8-16 3-9 2-12v-30l16-8 29-13z" fill="#08BFE2"/>
<path transform="translate(1360,846)" d="m0 0 4 1 20 26 8 11 9 15 12 23 6 14 8 24 4 17 4 26v44l-4 25-6 22-6 17-11 25-13 24-8 12-7 9-6 8-11 14-4 5h-2v2h-2l-2 4-12 12-8 7-9 9-8 7-17 14-17 12-14 10-13 8-20 12-8 5-8 4-3-1-1-18v-24l6-2 10-3 12-7 13-11 8-9 8-13 6-21 7-8 14-9 14-2 8-1-19 1-3-1-8-16-10-13-9-7-12-4h-9l-9 5-10 9-10 7-4 2h-8l-1-1-2-34-1-20 5-3 6-3 3-4v-11l-4-8 1-3 44-3 29-3 17-1 17-2h12l1-2 5 2 3-2v-2h-2l-2-51-4-55v-6l2-1 28-2-30-1-2-3-1-10v-10l8-9 10-6 16-7 3-2 1-9-10 1-16 5-14 1-4 1-6 12 1 7 2 4 6 3 4 35 4 53 1 50-1 1-47 4-53 4-21 2-5 1-8-1-1-1-3-29-2-29 6-4 7-4 3-5v-15l-2-17v-11l3-5 5-3 5-5 5-2 8 1 7 2 9-1 6-3 4-9 1-3v-17l-1-6v-17l6-10 5-6 6-4 11-4 10 1 21 4 1 4 1 10 1 8h2l-2-14v-7l9-3 5-5 9-15 5-6z" fill="#08BFE2"/>
<path transform="translate(609,750)" d="m0 0h1l3 13 4 7 10 6 10 3h14l43-8h21l16 5 8 6 7 7 1 2v24l-2 16v91h1l1-47 1-26 7 1 14 3 24 4 10 4 7 8 3 8 4 28 5 13 4 5 6 3h7l10-6 6-9 7-23 5-8 3-1 1 4 3 37 1 11-11 6-5 6-2 6 1 10 1 6-3 1-11 1-32 1h-22v3h17l44-2 9-1 19 19 4 36 1 7-5 6-15 5-4 1-25 2-11 3-3 3-1 3v12l3 6 6 5 10 4 34 5 13 4 3 3-1 5-46 2-57 1h-33v3h34l60-1 23-1h21l4 44 5 53 2 22-1 1-72 3-3-13-5-20-7-16-7-11-9-11-4-5-11-9-13-8-11-5-9-2-1-1v-18l1-4-1-1-1-11v-21l18-6 5-4 4-7 1-9-3-10-5-5-5-4-7-3-9-2-1-1v-45l11-1 6 4 7 6 4 2h11l3-5 1-8-7-14-6-7-17-13-12-8-1-2-24-12-18-6-18-3-14 1-18 4-15 5-29 12-23 9-9 3-10 2h-4v-20l-1-19v-15l1-1 12-2 12-5 13-5 5-1h20l18 7 7 2h12l6-4 5-8 2-8v-14l-5-15-6-9-5-5-8-5-2-1h-10l-6 3-6 9-8 14-4 3-18 5-18 4-15 5-5-1v-61l-1-10v-28l20-3 25-2z" fill="#07BEE1"/>
<path transform="translate(1157,1086)" d="m0 0h3l1 20-13 5-14 7-11-3-13-6h-7l-5 5 1 7 5 4 10 3 9 1 11 7 4 3 8 1 9-2 6-1 1 21-5 4-7 6-7 14-4 18-4 4-11 4-6 1v3l-14 9-6 5-2 5 1 9 4 8 6 4 4 1h14l12-4 15-6 7-2 1 3-2 11-3 52-26 4-28 3-44 5-46 4-43 3-1-1v-79h-2v78l-3 3-41 2-1 3 43-2 5-1 37-3 30-3 36-3 30-4 36-4 8-1h11l2-2 47-7 4-1-10 1-36 5h-6l1-20 2-30 2-16 1-1 10 1 11 8 9 10 10 7 8 4 1 47-2 3-17 7-15 7-19 8-9 3-23 9-28 9-28 8-33 8-41 8-32 5-10 2-31 3-1-2-4-45-1-20-2-10-9-93v-7l-2-11-4-42 16 1 18 2 9 4 8 11 7 16 4 13v5l-38 1h-16v4l18-1 38-1 1 2 1 10 7 7 10 6 12 4 9-1 8-6 6-7 7-14 3-14 1-7v-16l-3-30v-23l4-15 4-8 6-8 10-7 8-3 32-1 39-3z" fill="#08BFE2"/>
<path transform="translate(550,651)" d="m0 0 6 2 1 66 47-17 40-12 37-9 7 1-1 2-39 10-8 2-26 8-26 9-15 6-15 5h-2l2 16v12l24-2 19-2h10l2-6 5-5 10-4 16-4 11-6 11-7 8-4 7-2h13l20 4 30 8 23 4h9l21-7 24-12 26-10 13-4h24l10 2 17 6 9 7 10 10 8 14 2 16v9l-5 9-8 11-9 10-8 9-5 10-1 3v12l6 17 1 1h42l3 1 1-6h1l1 8-3 1v5l2 1-3 4-2-10-34 1-7 1 1 5v10l-5 8-5 4-18 4-9 1 2 28 2 23 15-1 9-1-2 2-17 2-10 1-2-11-3-37-1-3h-2l-2 4-4 10-5 17-7 10-10 6h-7l-8-5-5-8-4-14-3-23-4-10-7-6-12-4-31-5-10-3v26l-1 47h-3v-91l2-16v-24l-7-8-8-6-16-5h-21l-43 8h-14l-12-4-9-6-4-7-3-12-18 2-20 2-3 1h-9l1 28 1 10v61l7-1 19-6 23-5 9-4 8-14 6-9 4-3 3-1h10l9 5 5 4 7 10 4 10 2 7v14l-3 10-6 8-5 3h-12l-18-6-7-3h-20l-14 4-13 6-6 2-9 1v15l1 19v16l-1 4 4 1h-8l-2-56-3-6-2-1-1 12-1 43-1 3h-2l-1-7 2-44 3-18 2-8-40 2-54 4-29 2h-13l2-2 3-1 68-6 30-2 8-1 25-1v-75l-1-19-1-4-22 1 1-2 15-2 6-2 1-26-12 5-30 14-14 6-5 2 1 5v25l-3 16-7 16-7 10-9 10-14 10-15 7-15 4-5 1h-23l-16-4-12-5h-4l-5-6-9-7-9-10-8-13-6-14-3-13v-26l4-17 10-19 11-13 9-8 13-8 10-4 14-3h27l16 4 15 6 8 6v5l-4-1-21-10-11-3-6-1h-22l-14 3-16 7-10 8-10 10-8 13-5 11-3 11-1 7v21l4 15 8 16 9 12 7 7 14 8 14 6 7 2 10 1h12l14-2 13-5 16-9 11-10 9-13 6-13 3-9 1-6v-26l-2-10-1-2v-7l1-2h2l4 11v2l16-8 24-11 10-5 9-3 1-1v-67z" fill="#D8DCDC"/>
<path transform="translate(1265,334)" d="m0 0h10l19 3 13 5 19 11 16 12 13 11 11 9 7 7 8 7 42 42 7 8 14 17 13 17 6 10 1 6-6 9-3 3-5 1h-8l-6-3-8-9-9-13-13-17-12-14-23-23-8-7-14-12-14-13-14-11-13-10-14-8-11-4h-20l-8 2-18 6-18 8-33 16-27 14-23 13-13 7h-2l-4 27-4 16-8 27 13-4 20-8 28-8 12-3 9-1h24l13 3 11 6 11 8 24 24 7 8 12 13 4 3 16-3 64-16 44-10h9l2 6 1 8v10l-4 13-8 19v6l4 6 11 6 3 6 1 7 1 30-3 5-11 9-2 3v8l1 4 16 3 4 6 2 16v21l-4 4-6 5-1 2v7l2 9-6 9-5 4-10 1-8-4-6-7-8-15-18-27-10-14-11-14-9-10-5-5-13-15-9-11-9-10-7-9v-2h-2l-7-8-10-13-8-8-9-11-9-9-3-5-18-20-12-12-7-4-8-3-9-1-15 2-17 4-33 11-19 8-5-1-1-3-3-1-2-5h-2v-2h-2v-2l-4-2-7-6v-2l-4-2-8-8-4-3 1-7 7-19 6-23 3-19 1-3 6-3 13-11 8-8 7-6 4-8 22-12 23-12 22-11 28-12 25-9 14-2z" fill="#035561"/>
<path transform="translate(359,848)" d="m0 0h4l-1 4-4 2-2 4-11 13-1 4-5 4-9 12-12 17-9 17-8 16-11 27-4 16h4v2l-5 2-3 16-3 25v34l2 18 5 23 5 17 10 24 13 25 14 21 9 12 10 14 8 8 7 8 24 22 8 7 16 13 15 10 10 7 13 8 23 13 12 5 3 3v2l10 3 9 6 32 13 17 6 16 6 15 5 3 2-2-21v-14l-10-1-2 1-2-1-40-4-11-1-6-2v-1h16l38 3h5l1 1h10l-1-16-3-46-3-36v-2h-13l-4-1 4 37 8 54v5h-2l-3-13-4-25-5-38-2-18-1-4-1-15-4-26h4l2 9 3 25 1 6 17-1-3-31v-18l-5 1 1-2 9-3 1 26 2 28h2l13 1 8 3-3 2-20-2 5 61 2 34v6l14 1 9 1 25 1 8 1-1 3h-18l-26-2-9-1v14l2 22 9 3 18 5 19 6-3-13v-7l11-23 8-15 2-5v-14l-5-12-6-9-12-12-18-13-6-5-4-6-1-8 4-11 6-5 9-4h19l17 2h11l12-3 8-6 5-7 1-3v-10l-5-18-1-6v-8l3-9 6-9 9-8 16-8 5-1h15l13 2 16 8 12 8 9 8 9 11 7 10 8 16 5 16 3 14-1 30-4 9-7 11-9 10-13 8-15 8-19 9 2 24 1 6-1 1h-32l-1-1-1 3 32 1 3 1 7 54 1 7-2 1-18-1-29-4-25-3-2-2-1 3-4 1v2l-9 4h-13l-12-7-9-6-8-3-14-3-30-8 7 81 6 71v5l-5 1-1-4-3-41-5-55-5-58-2-4-14-3-29-11-15-6-28-12-2-1v-2l-8 3-7 5-8 3h-10l-10-4-8-8-5-8-4 1-11 8-5 2h-11l-8-4-8-9-4-8v-2l-9 3-8 4-10 3h-14l-9-5-7-8-7-13 1-5 4 2 7 12 6 7 6 3h16l24-12 3 3 6 12 8 9 4 2 10-1 7-4 10-9 4 1 6 8 9 10 8 4 9-1 9-4 3-3-9-6-6-3-22-12-14-8-22-15-21-16-13-11-16-15-16-16-11-14-10-13-12-17-9-15-12-23-10-27-4-14-5-24-2-21v-31l3-26 3-16 7-25 8-19 8-16 10-19 10-14 14-19 10-12 7-8z" fill="#D8DCDC"/>
<path transform="translate(1209,1323)" d="m0 0h3l3 57v7l-1 1-8-1-15-8h-4l1 4 10 6 7 3 8 1 2 2 1 40 1 86h-3l-15-24-12-19-7-8-2-1h-7l-5 4-3 11-3 19-4 8h-5l-8-7-5-5-7-2-7 3-6 1-16-4-7-3-6-10-3-3-10-1-6 4-4 3-75-20-48-13-16-5-2-31-1-17 32-4 34-5 41-8 34-8 36-10 33-11 28-11 21-9z" fill="#08BFE2"/>
<path transform="translate(730,524)" d="m0 0h7l5 5 12 14 12 10 4 2h39l11-8 9-10 9-9 5 1 4 4v6l-2 4v4l4 2h6l1-1h10l7 2 31 3 30 4 11 2 20 2 34 4 11 2 21 1-6 8-11 13-14 14-14 11-15 9-19 10-12 5-6 3-33 10-29 6-14 3-13 2-12 1h-31l-29-1-26-3-30-5-21-5-31-9-23-8-15-7-7-3-4-2h7l11 4 9 3 5-2 5-5 9-11 4-5 13-5 12-3h12l8 4 8-1 10-8 11-9 24-8v-3l-13-8-8-6-10-13-5-10v-7z" fill="#08BFE2"/>
<path transform="translate(595,1371)" d="m0 0 12 2 25 7 9 2 10 4 11 8 6 3h13l13-5 58 8 25 2 20 1h94l21-1 6-1 1 1 5 44v4l-19 6-30 8-32 8-11 2-5-5-9-8h-10l-3 3-5 18-2 2-8 3h-8l-13-8-4-2h-8l-5 6-8 15-2 2h-10l-4-4-8-14-6-5-6 1-6 5-5 18-3 9-11 4-63 17-8 1-4-3-2-20-8-93-3-31z" fill="#08BFE1"/>
<path transform="translate(1e3 644)" d="m0 0 4 2 16 24 3 5 8 15 11 23 7 17v2h2l6 17 9 24 2 9-16-2h-14l-12 3-11 6-13 8-10 5-23 7-10 6-3 6-3 17-1 2h-45l-3-4-5-15v-12l4-9 6-9 11-11 8-11 6-9 1-3v-9l-2-16-8-14-12-12-8-5-18-6-7-1-24-1v-1l29-4 32-8 15-5 25-10 7-1 4-4z" fill="#08BFE2"/>
<path transform="translate(1161,1066)" d="m0 0 3 1v7l3 1-4 1-1 15 1-2 2 1-1 2v14l7 5v7l-6 15v16l-1 8h14l12 4 10 3h4l2-11h2v15l10 1v-2l10-6 11-10 10-6 2-1h9l12 4 9 7 9 11 8 14 1 5h10l6-1h11v1l-23 3-8 3-12 9-4 5-6 21-9 14-11 12-13 10-14 7-10 2-1 47-1 2h-2l-1-9-1-41-12-6-9-8-7-8-9-6-10-1-2 16-3 43-1 7 27-4 15-2 11-1-1 2-29 5-22 3-3 2h-10l-33 4-61 7-38 3-31 3-14 1-5 1-41 2-2-1 1-4 43-2v-25l1-55h2l1 6v73l55-4 53-5 43-5 32-4h4v-17l2-35 2-13-15 5-15 6-4 1h-14l-7-3-5-5-3-6-1-9 3-6 10-8 8-5h2l-1-3 7-2 12-5 3-5 4-18 6-11 8-7 4-4v-20l-8 3-11 1-7-3-10-7-2-1-13-2-9-4-4-5 1-7 5-4h7l16 7 8 2 16-8 8-3h3l-1-8v-12l-3 1-39 3-27 2h-31v-1l11-3 1-3 3 1-2 1h21l31-2 8-1 27-1z" fill="#D8DCDC"/>
<path transform="translate(739,1103)" d="m0 0 7 2v17l-20 3-16 8-9 8-6 10-2 7v8l6 24v10l-4 8-9 8-9 3-5 1h-11l-17-2h-19l-12 6-4 6-2 7 1 8 6 8 17 12 12 11 9 10 6 13 1 3v14l-20 40-1 3v7l2 7v6l-9-2-36-10-2-2-2-22v-14l2-1 17 2 17 1h18l1-2-33-1-23-3-1-6-2-34-4-51v-10h11l9 1 2-1-14-3h-6l-2 1-1-2-3-47 1-7 10 1 12 6 10 7 4 2h11l5-5v-8l-6-9-13-13-7-8-1-7 4-8 10-6 7-2 23-1 12-3 4-4 3-4h51z" fill="#08BFE2"/>
<path transform="translate(396,692)" d="m0 0h22l14 3 16 7 12 6-11 30-8 27-5 18-2 12-1 10v9l3 5 6 4 9 1 9-3 5-7 2-8 2-19 3-10 11-35 2 4 2 5 1 7v26l-3 12-5 12-7 12-11 12-10 7-15 8-14 4-9 1h-12l-14-2-15-6-13-7-10-9-8-10-8-14-5-15-1-5v-21l3-15 5-12 7-12 9-10 7-7 11-7 15-6z" fill="#08BFE2"/>
<path transform="translate(326,440)" d="m0 0h29l35 5 15 3 36 6 24 5 8 1 1-5 4 1 7 5v2l4 2 8 9-1 4-9 10-4 4-6 3-28-6-52-9-46-7h-20l-9 6-9 10-9 13-18 24-12 17-13 18-12 19-9 10-10 14-22 34-6 11-13 24-10 17-5 5h-13l-6-5-3-6v-9l6-15 13-23 12-20 14-22 13-19 9-13 11-15 12-17 8-11 10-14 9-12 13-18 8-11 9-10 8-7 12-6z" fill="#035562"/>
<path transform="translate(1417,516)" d="m0 0h9l2 6 1 8v10l-4 13-8 19v6l4 6 11 6 3 6 1 7 1 30-3 5-11 9-2 3v8l1 4 16 3 4 6 2 16v21l-4 4-6 5-2 7-2-4-12-21-10-16-8-11-16-20-9-10-9-11-11-12-9-11-12-13-3-3-1-3-5-5-6-8-9-10-9-11-7-8 1-2 25-6 57-14z" fill="#08BFE2"/>
<path transform="translate(897,1224)" d="m0 0h5l1 3 6 66 3 29v7l-40 2-60 1h-46l-2-6-2-20-1-5 5-4 32-16 11-8 7-8 8-13 3-10 1-14 1-1 53-2z" fill="#08BFE2"/>
<path transform="translate(856,548)" d="m0 0h10l7 2 31 3 30 4 11 2 20 2 34 4 11 2 21 1-6 8-11 13-14 14-14 11-15 9-19 10-12 5-6 3-33 10-29 6-12 2-1-10v-21l17 2 10-1 13-5 9-7 2-2h5l7 4 5 1h12l15-4 16-9 1-6-5 2-7 5-11 5-11 3-10-1-10-4-3-2-5 1-11 9-8 4-9 2h-8l-13-3-2-2-1-11-2-43v-17z" fill="#08BEE1"/>
<path transform="translate(1069,573)" d="m0 0 8 2 17 2 14 2 33 3 1 1 4 32 9 57 5 32v7l-10-3-24-8-26-8-25-7h-6l-9-19-10-18-13-19-6-8 3-5 12-13 11-14z" fill="#08BFE2"/>
<path transform="translate(550,651)" d="m0 0 6 2 1 66 47-17 40-12 37-9 7 1-1 2-39 10-8 2-26 8-26 9-15 6-15 5h-2l2 16v12l24-2 19-2h10l1-2v15h-1l-2-10-18 2-20 2-3 1h-9l1 28 1 10v61l7-1 19-6 23-5 9-4 8-14 6-9 4-3 3-1h10l9 5 5 4 7 10 4 10 2 7v14l-3 10-6 8-5 3h-12l-18-6-7-3h-20l-14 4-13 6-6 2-9 1v15l1 19v16l-1 4 4 1h-8l-2-56-3-6-2-1-1 12-1 43-1 3h-2l-1-7 2-44 3-18 2-8-40 2-54 4-29 2h-13l2-2 3-1 68-6 30-2 8-1 25-1v-75l-1-19-1-4-22 1 1-2 15-2 6-2 1-26-12 5-30 14-14 6-5 2 1 5v25l-3 16-7 16-7 10-9 10-14 10-15 7-15 4-5 1h-23l-16-4-12-5h-4l-5-6-9-7-9-10-8-13-6-14-3-13v-26l4-17 10-19 11-13 9-8 13-8 10-4 14-3h27l16 4 15 6 8 6v5l-4-1-21-10-11-3-6-1h-22l-14 3-16 7-10 8-10 10-8 13-5 11-3 11-1 7v21l4 15 8 16 9 12 7 7 14 8 14 6 7 2 10 1h12l14-2 13-5 16-9 11-10 9-13 6-13 3-9 1-6v-26l-2-10-1-2v-7l1-2h2l4 11v2l16-8 24-11 10-5 9-3 1-1v-67z" fill="#D8DDDD"/>
<path transform="translate(894,1333)" d="m0 0h19l2 17 3 38v10l-11 1-23 1h-88l-22-1-2-3-4-38-3-21 2-2 106-1z" fill="#08BFE2"/>
<path transform="translate(1184,67)" d="m0 0 11 1 25 7 20 7 60 28 24 11 22 12 17 10 19 13 13 10 8 7 6 9 1 2v9l-6 9-8 3-6-1-9-6-10-9-18-13-25-15-27-14-28-13-29-14-15-7-17-6-25-7-22-3-12-1 14-14 8-7z" fill="#035562"/>
<path transform="translate(688,682)" d="m0 0 31 6 28 4 23 2 55 1 24-1 11-1v1l-13 4-21 8-25 12-15 6-10 3h-9l-23-4-38-10-12-2h-13l-12 4-14 9-14 7-19 5-7 4-4 8-23 2-20 2h-10l-2-28 19-7 24-9 31-10 12-4 18-4 27-7z" fill="#08BFE2"/>
<path transform="translate(1067,972)" d="m0 0h15l12 6 8 9 5 10 1 5-1 14v16l3 10 5 8 7 4 6 1 10-4 5-6v-9l-9-21 1-10 4-6 7-6 7-2h4v17l5 54 2 1v2l4-1 3 2v5l-3 3h-4l-1-7-2-1v17l-3 1-25 1-22 2-17 1h-22l3-3 9-4 6-4 6-10v-12l-6-8-9-7-10-6-13-8-9-7-6-9-2-6v-9l4-8 6-7 10-6z" fill="#08BFE2"/>
<path transform="translate(314,115)" d="m0 0 2 1-4 5-5 1v2h-2l-2 4-5 3h-2v3l-8 7-5 5-15 14-5 5-4 5-6 5-5 5-6 7h-2l3 4-3 3h-3v3l-3 1-3 5-17 12-19 14-13 10-14 11-26 22-8 8-8 7-9 8-6 2-9-1-7-7-3-5 3-9 5-9 18-18 22-18 25-20 16-12 14-10 11-8 16-11 15-10 22-14 22-13 23-12z" fill="#035562"/>
<path transform="translate(359,848)" d="m0 0h4l-1 4-4 2-2 4-11 13-1 4-5 4-9 12-12 17-9 17-8 16-11 27-4 16h4v2l-5 2-3 16-3 25v34l2 18 5 23 5 17 10 24 13 25 14 21 9 12 10 14 8 8 7 8 24 22 8 7 16 13 15 10 10 7 13 8 23 13 12 5 3 3v2l10 3 9 6 32 13 17 6 16 6 15 5 3 2-2-21v-14l-10-1-2 1-2-1-40-4-11-1-6-2v-1h16l38 3h5l1 1h10l-1-16-3-46-3-36v-2h-13l-4-1 4 37 8 54v5h-2l-3-13-4-25-5-38-2-18-1-4-1-15-4-26h4l2 9 3 25 1 6 17-1-3-31v-18l-5 1 1-2 9-3 1 26 2 28h2l13 1 8 3-3 2-20-2 5 61 2 34v6l14 1 9 1 25 1 8 1-1 3h-18l-26-2-9-1v14l2 22 9 3 18 5 19 6v-6h1v7h2v2l4 2-6-1-16-4-30-8 7 81 6 71v5l-5 1-1-4-3-41-5-55-5-58-2-4-14-3-29-11-15-6-28-12-2-1v-2l-8 3-7 5-8 3h-10l-10-4-8-8-5-8-4 1-11 8-5 2h-11l-8-4-8-9-4-8v-2l-9 3-8 4-10 3h-14l-9-5-7-8-7-13 1-5 4 2 7 12 6 7 6 3h16l24-12 3 3 6 12 8 9 4 2 10-1 7-4 10-9 4 1 6 8 9 10 8 4 9-1 9-4 3-3-9-6-6-3-22-12-14-8-22-15-21-16-13-11-16-15-16-16-11-14-10-13-12-17-9-15-12-23-10-27-4-14-5-24-2-21v-31l3-26 3-16 7-25 8-19 8-16 10-19 10-14 14-19 10-12 7-8z" fill="#C8F0FA"/>
<path transform="translate(654,416)" d="m0 0 16 1 12 5 9 7 8 10 4 9 1 4v16l-5 14-6 9-9 8-12 6-10 2h-10l-8-2-10-5-10-9-4-5-5-10-2-8v-10l3-13 5-9 8-9 11-7 7-3z" fill="#035562"/>
<path transform="translate(912,433)" d="m0 0h23l12 5 12 11 6 10 3 8 1 13-2 13-7 13-9 9-9 5-10 3h-15l-13-4-9-6-7-8-6-12-2-6v-20l4-11 7-9 9-8z" fill="#035561"/>
<path transform="translate(1149,64)" d="m0 0h24l11 2-1 3-8 7-17 16-4 3 11 1v1l-18 2-8 3-12 9-7 7-1 2h-2l-2 4-12 13-12 14-8 9-4 6h-2l-2 4-10 11-10 13-3 2-5-3-11-11-3-2v-2l-4-2-4 3 2-4 8-8 11-14 11-12 9-11 12-14 7-7 7-8 12-13 13-11 12-7 15-5z" fill="#035662"/>
<path transform="translate(550,651)" d="m0 0 6 2 1 66 47-17 40-12 37-9 7 1-1 2-39 10-8 2-26 8-26 9-15 6-15 5h-2l2 16v12l24-2 19-2h10l1-2v15h-1l-2-10-18 2-20 2-3 1h-9l1 28 1 10v61l3 2-5 2-1 2h-2l-1 5h-1v-6l-40 2-54 4-29 2h-13l2-2 3-1 68-6 30-2 8-1 25-1v-75l-1-19-1-4-22 1 1-2 15-2 6-2 1-26-12 5-30 14-14 6-5 2 1 5v25l-3 16-7 16-7 10-9 10-14 10-15 7-15 4-5 1h-23l-16-4-12-5h-4l-5-6-9-7-9-10-8-13-6-14-3-13v-26l4-17 10-19 11-13 9-8 13-8 10-4 14-3h27l16 4 15 6 8 6v5l-4-1-21-10-11-3-6-1h-22l-14 3-16 7-10 8-10 10-8 13-5 11-3 11-1 7v21l4 15 8 16 9 12 7 7 14 8 14 6 7 2 10 1h12l14-2 13-5 16-9 11-10 9-13 6-13 3-9 1-6v-26l-2-10-1-2v-7l1-2h2l4 11v2l16-8 24-11 10-5 9-3 1-1v-67z" fill="#C8F0FA"/>
<path transform="translate(572,635)" d="m0 0 1 2 6 2 20 11 17 7 14 6 23 8 22 7 1 2h9l-4 2-44 11-45 14-29 11-6 1-1-2v-65l10-9z" fill="#08BFE2"/>
<path transform="translate(532,639)" d="m0 0 7 1 2 1v2h2l8 10 1 2v67l-4 3-14 5-16 8-17 8-8 4h-2l-4-11v-2h-2v-2h2l1-6 9-22 13-29 9-19 8-14z" fill="#08BFE2"/>
<path transform="translate(890,1092)" d="m0 0h1l-1 8 4 1 1-2 5 1 4 4v16l-3 6-3 3h-3l2 25 1 4v7l8 1v1h-5l2 10 4 40 1 8 7 75 3 27 1 3 2 30 2 25v10h-1l-2-12v13l1 4-2 4-1-2-6 1-21 1h-94l-20-1-34-3-49-7-4-1 4-1 1-4 2 2 31 4 34 4h9l-3-13-5-39v-9l-37-1 3-5 1 2 5-1h27l-2-15v-14l-2-1 4-1 4 31h48l58-1 23-1h17l-5-48-5-57-5 1-43 2-25 1-1 14h-1v-18l2-2v2l2-1 70-3-6-65-4-40v-14l-44 2-60 1h-34l-1-2 1-2 33-1 57-1 46-2zm4 241-21 1-106 1-2 3 4 29 3 29 2 3 22 1h88l23-1 11-1v-10l-4-49-1-6z" fill="#C8F0FA"/>
<path transform="translate(1071,688)" d="m0 0 10 2 18 5 18 6 8 2 34 11 3 3 1 19-4 2v4l-10 7-13 10-3 2h-3l-2 5-13 8-6 4-2 4-2-9-15-43-5-10-5-13-5-10-3-7z" fill="#08BFE2"/>
<path transform="translate(460,708)" d="m0 0 1 2 1 5 8 6 5 5 5 6 5 3-1 7-11 35-3 10-3 24-4 8-5 4-10 2-8-2-6-5-2-4v-9l2-16 4-16 7-26 13-36z" fill="#035460"/>
<path transform="translate(919,843)" d="m0 0h34l2 5-1 10-9 7-11 7-7 6-4 8-1 4-2 20-4 8-6 5-10 4-5 1-15 1-1-1-4-46v-5l1-1 20-3 9-3 5-6 2-4v-10l-1-5 1-1z" fill="#08BFE2"/>
<path transform="translate(724,973)" d="m0 0h19v44l-22 7-5 1h-10l-13-5-10-6-11-11-8-14-2-5-1-8 1-1 41-1z" fill="#08BFE2"/>
<path transform="translate(728,1334)" d="m0 0 32 1 3 1 7 54 1 7-2 1-18-1-29-4-25-3-1-3 9-15 13-25 8-12z" fill="#08BFE2"/>
<path transform="translate(691,1056)" d="m0 0h13l30 7 10 3 1 1v33l-1 1-74 1 1-26 4-9 4-5 8-5z" fill="#08BFE2"/>
<path transform="translate(937,680)" d="m0 0 2 1 3 23 2 24 1 2 15 1 30 1 5 2 1 3 5-1 8-7 7-6h9l7 3 8 6 14 1v3l-13-1v17l-4 7-8 5-3 1h-10l-14-7h-6l-11 8-11 6-6-1-6-7-2-5v-13l4-8v-4l-10 1-2 1h-9l-2-8-3-35-1-5z" fill="#D8DDDD"/>
<path transform="translate(409,715)" d="m0 0 3 3 5 39 5-2 7-7 6-5 6-2-6 9-12 12 9 3 7 2 1 3-4 9-7 2h-5l3 7 5 5 1 5-2 2-11-11h-3l-4 15-5 25-1 3-3-1-1-17-3-20v-8l-11 8-13 11h-4l2-4 19-19-4-2-40-8-2-2 4-2 18-2 22-3 2-2-9-11-9-10-4-6v-2l4 2 17 16 8 7 2-11 4-17 2-13z" fill="#D7DDDE"/>
<path transform="translate(359,848)" d="m0 0h4l-1 4-4 2-2 4-11 13-1 4-5 4-9 12-12 17-9 17-8 16-11 27-4 16h4v2l-5 2-3 16-3 25v34l2 18 5 23 5 17 10 24 13 25 14 21 9 12 10 14 8 8 7 8 24 22 8 7 16 13 15 10 10 7 13 8 23 13 12 5 3 3v2l10 3 1 2-8-2 1 5-2-1-4-4-33-18-14-8-22-15-21-16-13-11-16-15-16-16-11-14-10-13-12-17-9-15-12-23-10-27-4-14-5-24-2-21v-31l3-26 3-16 7-25 8-19 8-16 10-19 10-14 14-19 10-12 7-8z" fill="#C8F0FA"/>
<path transform="translate(394,687)" d="m0 0h27l16 4 15 6 8 6v5l-4-1-21-10-11-3-6-1h-22l-14 3-16 7-10 8-10 10-8 13-5 11-3 11-1 7v21l4 15 8 16 9 12 7 7 14 8 14 6 7 2 10 1h12l14-2 13-5 16-9 11-10 9-13 6-13 3-9 1-6v-26l-2-10-1-2v-7l1-2h2l4 17 1 16v20l-3 12-8 16-6 8-8 9-14 10-15 7-15 4-5 1h-23l-16-4-12-5h-4l-5-6-9-7-9-10-8-13-6-14-3-13v-26l4-17 10-19 11-13 9-8 13-8 10-4z" fill="#D3E2E5"/>
<path transform="translate(1175,1087)" d="m0 0h7l6 7 7 13 6 5 1 4 3 48-5 1-10-3-12-4-14-1v-24l6-15v-7l-7-5v-14l2-3z" fill="#08BFE2"/>
<path transform="translate(730,524)" d="m0 0h7l5 5 12 14 12 10 4 2h39l11-8 9-10 9-9 5 1 4 4v6l-10 16-9 9-10 6-17 5-7 1h-9l-21-5-13-8-8-6-10-13-5-10v-7z" fill="#035763"/>
<path transform="translate(1409,1199)" d="m0 0h9l4 5 2 5v20l-4 13-7 8-9 6-20 8-9 6-9 7-2 1h-7l-5-6v-8l6-8 24-13 6-7 4-9 5-15 4-6z" fill="#D7DEDF"/>
<path transform="translate(1367,843)" d="m0 0h12v1h-11l10 14 11 14 12 18 11 19 10 23 6 17 6 24 4 26 1 12v23l-2 24-5 25-7 23-11 26-10 19-8 14-8 11-10 14-9 11-9 10-7 8-11 11h-2l-2 4-11 11-8 7-11 9-13 10-19 13-10 7-13 8h-3l1-4 9-6 11-7 18-13 12-9 11-9 10-9 8-7 9-9 8-7 7-7 1-2h2v-2h2l2-4 10-12 8-11 10-13 12-21 9-17 12-29 5-17 3-12 4-25v-44l-4-26-5-21-8-22-7-16-12-23-9-14-20-26-6-8-3-2z" fill="#C8F0FA"/>
<path transform="translate(1161,1066)" d="m0 0 3 1v7l3 1-4 1-1 15 1-2 2 1-1 2v14l7 5v7l-6 15v16l-1 8h14v1l-14 1-4 1 1-3v-20l-8 3-11 1-7-3-10-7-2-1-13-2-9-4-4-5 1-7 5-4h7l16 7 8 2 16-8 8-3h3l-1-8v-12l-3 1-39 3-27 2h-31v-1l11-3 1-3 3 1-2 1h21l31-2 8-1 27-1z" fill="#D7DDDE"/>
<path transform="translate(890,1092)" d="m0 0h1l-1 8 4 1 1-2 5 1 4 4v16l-3 6-3 3h-3l2 25 1 4v7l8 1v1h-5l2 10 4 40 1 8 7 75 1 10v10l-1 10h-2l-2-8-5-52-4-46-5 1-43 2-25 1-1 14h-1v-18l2-2v2l2-1 70-3-6-65-4-40v-14l-44 2-60 1h-34l-1-2 1-2 33-1 57-1 46-2z" fill="#C8F0F9"/>
<path transform="translate(1286,954)" d="m0 0 16 1 4 4 2 4v9l-5 12-7 9-7 6-10 5-8 3-19 11-4 2h-7l-5-5 1-9 5-8 6-7 12-7 14-3 6-3 6-18z" fill="#D7DDDE"/>
<path transform="translate(1366,895)" d="m0 0 6 1 1 6-2 4-26 13-7 6-3 4v10l1 10 1 2 42 1v1l-42 3 2 18 3 43 1 24v27h2v2h5v1l-7 1h-4-3l-24 2-5 1-39 3-18 2-33 2-2 2-1-2-10-2-2-2-1-13-1-4-1-37h1l4 45 1 9 11 1 6-1 17-2 91-7 9-1-1-50-4-53-3-25v-10l-6-2-4-8 1-7 4-6 4-4 2-1 14-1z" fill="#C8F1FB"/>
<path transform="translate(1184,67)" d="m0 0 11 1 14 4-1 4 5 5 2 4h2l7 8 1 3 3 1 15 15 2 1v2h2v2l4 2 5 5-6-1-21-10-17-6-25-7-22-3-12-1 14-14 8-7z" fill="#035562"/>
<path transform="translate(849,550)" d="m0 0h6l2 31 1 28 1 11 4 2 10 2h8l11-3 10-6 7-6 5-1 8 4 9 3 10-1 12-4 12-7 2-2h4l1 4-5 5-16 8-12 3h-12l-9-3-3-2h-5l-7 6-7 4-10 4-10 1-16-2v30l-3 1-2-1-2-31-1-6-6 4-7 6-4 2-14 1-15-4-12-4-2-4 2-1 9 1 13 4 5 1h10l7-3 5-6 2-3 4 1 3 2-2-50z" fill="#C8EFF9"/>
<path transform="translate(1146,582)" d="m0 0 1 4 14 95 3 20 1 11 12 5 33 14 30 15 16 10h13l-3 2-12 2-3 2-15-1-4-2 2-1 4 1 13 1-4-4-21-11-16-9-16-6-19-8-9-3 2 17 15-3h12l13 5 6 4 2 3-14-7-10-3-10 1-10 2h-5l-2-12v-6h-2v9h-1l-1-12-5-3-33-11-16-4-15-5-21-6-1-4 8 1 25 7 45 14 12 5-11-72-6-38-1-8v-10z" fill="#C8F0FA"/>
<path transform="translate(1380,155)" d="m0 0 9 6 14 12 6 9 1 2v9l-6 9-8 3-6-1-9-6-10-9-15-11 1-5 7-7 6-5 4-4z" fill="#035663"/>
<path transform="translate(1159,991)" d="m0 0 10 4 13 12 13 11 1 14v18l-4-2-5-2h-11l-8 4-5 2-1-7-2-32-1-12z" fill="#08BFE2"/>
<path transform="translate(284,130)" d="m0 0h2v2l3 1h-3v2h2v2h-2v2l-8 7-7 7h-2v2h-2v2l-8 7-8 8-8 7-16 16-5 1-6-8-5-5-2-5 23-16 24-15 25-15z" fill="#035662"/>
<path transform="translate(689,945)" d="m0 0 6 1 18 10 3 1h12l14-1 2 1v10l-2 2-33 2h-47l3-9 6-8 8-6z" fill="#08BFE2"/>
<path transform="translate(1159,1240)" d="m0 0 4 1-2 16-3 43-1 7 27-4 15-2 11-1-1 2-29 5-22 3-3 2h-10l-33 4-61 7-38 3-31 3-14 1-5 1-41 2-2-1 1-4 43-2v-25l1-55h2l1 6v73l55-4 53-5 43-5 32-4h4v-17l2-35 2-13z" fill="#C8F1FB"/>
<path transform="translate(1215,1353)" d="m0 0h2v15h2v18l8-5 10-8 6 1 6 3h9l9-4 7-5 4 1-1 5-8 6-8 3-10 1-9-4-5 1-8 7-5 3h-4l1 63v57l-2 9h-2l-1-3-1-82-1-40-1-1-10-2-14-7-3-3 1-4 5 1 17 8h5v-12z" fill="#CCECF3"/>
<path transform="translate(326,1347)" d="m0 0 4 2 6 8 8 8 10 5 3 1h10l12-6 6-4 5 1 8 14 7 7 5 3h6l11-6 9-8 5 1 12 14 8 6 4 2h8l8-4 11-9h3l-1 5-7 8-7 5-7 2h-10l-9-5-10-10-5-7h-4v2l-13 9-5 2-10-1-9-6-6-7-5-9-6 1-11 6-4 1h-8l-10-3-11-7-9-10-4-7z" fill="#D3E2E6"/>
<path transform="translate(329,1290)" d="m0 0 4 2 7 12 6 7 6 3h16l24-12 3 3 6 12 8 9 4 2 10-1 7-4 10-9 4 1 6 8 9 10 8 4 9-1 9-4 5-1-1-5 10 2v3h-4v2l-11 7-8 3h-10l-10-4-8-8-5-8-4 1-11 8-5 2h-11l-8-4-8-9-4-8v-2l-9 3-8 4-10 3h-14l-9-5-7-8-7-13z" fill="#D3E3E6"/>
<path transform="translate(579,1166)" d="m0 0 1 2 2 40 1 12h2l13 1 8 3-3 2-20-2 4 47v41l-1-4h-2l-3-46-3-36v-2h-13l-4-1 4 37 8 54v5h-2l-3-13-4-25-5-38-2-18-1-4-1-15-4-26h4l2 9 3 25 1 6 17-1-3-31v-18l-5 1 1-2z" fill="#CDEAF1"/>
<path transform="translate(362,1103)" d="m0 0 3 2 4 37 7 48 3 19h14l45 3 21 2 24 1 37 3 31 1 3 1v3h-15l-85-5-56-5-21-1-4-16-8-51-3-30z" fill="#C8F1FB"/>
<path transform="translate(314,115)" d="m0 0 2 1-4 5-5 1v2h-2l-2 4-5 3h-2v3l-8 7-5 5-15 14-5 5-4 5-6 5-5 5-6 7h-2l3 4-3 3h-3v3l-3 1-3 5-17 12-15 11h-2l2-5 5-4 4-5h2v-2l7-5 3-4v-5l-4-2-6-7-3-1-3-4 3-3 4 2 3 4v2l4 2 4 5v2l6-3 21-21 8-7 8-8h2v-2h2v-2l8-7 7-7h2v-2h2v-2h-2v-6l20-10z" fill="#02404C"/>
<path transform="translate(1366,895)" d="m0 0 6 1 1 6-2 4-26 13-7 6-2 3-6 1-6-2-3-7 1-7 4-6 4-4 2-1 14-1z" fill="#D6DEE0"/>
<path transform="translate(572,1170)" d="m0 0h3l3 42 1 8h-18l-2-6-4-34 8-5z" fill="#07BEE1"/>
<path transform="translate(890,1092)" d="m0 0h1l-1 8 4 2h5l2 2 1 4v13l-3 5h-2l-1-21-1 1v20l-3-1-1-10v-14l-44 2-60 1h-34l-1-2 1-2 33-1 57-1 46-2z" fill="#C8F1FB"/>
<path transform="translate(1381,1380)" d="m0 0 4 1-1 6-10 9-9 4h-14l-9-4-5-1v2h-2l-2 4-8 7-10 5-4 1h-17l-11-4-4-3v-3l9 1 12 3h8l9-3 9-6 7-6 4-5 6 1 7 3 7 2 7-1 8-4z" fill="#C8F1FB"/>
<path transform="translate(394,687)" d="m0 0h27l16 4 15 6 8 6v5l-4-1-21-10-11-3-6-1h-22l-14 3-16 7-10 8-14 14 2-5 6-8-6 4 2-4 11-10 13-8 10-4z" fill="#C8F0FA"/>
<path transform="translate(1166,719)" d="m0 0 9 2 21 9 16 6 18 10 20 11 1 3h-13l-7-3-6-4-13-12-8-4-9-3h-12l-9 2h-6l-2-12z" fill="#08BFE2"/>
<path transform="translate(380,868)" d="m0 0 10 1 1 2-9 1-3 6-6 37-4 36-2 22-1 9 9-2 10-1h21v1l-28 2-12 3-6 5 1-7-9 1-40 2h-18v-2l2-1 65-3 1-1 5-49 6-38 3-11 1-9-3-1 5-2z" fill="#C8F1FB"/>
<path transform="translate(744,957)" d="m0 0 4 3 4 2-2 1-3-1v6h8l4 4h-13l1 5v35l-2 6h-2v-45l-40 2-42 1v-6h48l33-2 1-1z" fill="#C8EFF9"/>
<path transform="translate(1313,657)" d="m0 0 5 1 8 4 6 2h9l6-1 3 2-2 4-4 1h-14l-10-4-4-2-8 7-9 6-10 3h-10l-17-4-8-4-1-3 1-2 7 1 13 4 11 2 8-2 10-5 6-5z" fill="#C8F1FB"/>
<path transform="translate(436,1372)" d="m0 0 5 1 12 14 8 6 4 2h8l8-4 11-9h3l-1 5-7 8-7 5-7 2h-10l-9-5-10-10-5-7h-4v2l-10 5-6 4h-9l4-3 9-4 5-5z" fill="#D2E3E7"/>
<path transform="translate(758,1302)" d="m0 0h2l2 23 1 6-1 1h-32l2-5 14-15 9-8z" fill="#08BFE2"/>
<path transform="translate(360,1028)" d="m0 0 5 5-2 1 2 62 1 1 80 2 29 1 2 3h-37l-55-2h-7l-4-1h-8l-5 1-1-4z" fill="#C8F1FB"/>
<path transform="translate(554,834)" d="m0 0h1v24l4-3 5 1-2 2-3 1-1 2h-2l-1 5h-1v-6l-40 2-54 4-29 2h-13l2-2 3-1 68-6 30-2 8-1 25-1z" fill="#C8F0FA"/>
<path transform="translate(290,752)" d="m0 0h5l-1 7-1 8 6-13 2-2h5l1 2-5 13v3l9-17 4-1-1 7-7 16-4 4h-7l-2-3v-5l-2 7-1 1h-6l-1-5 4-19z" fill="#D6DFE0"/>
<path transform="translate(744,1066)" d="m0 0h10v1l-5 1v21l1 11 1 3-1 2v19l-13-1v-1h9v-17l-7-1-20 1h-51l-2 1 3-9h1v5l2-1 72-1z" fill="#C8F1FB"/>
<path transform="translate(551,1180)" d="m0 0h4l2 9 3 25 1 6h18v6l-1-2h-13l-4-1 4 37 8 54v5h-2l-3-13-4-25-5-38-2-18-1-4-1-15z" fill="#C8F1FB"/>
<path transform="translate(1215,1416)" d="m0 0h2l1 2 2-1 1 37v57l-2 9h-2l-1-3z" fill="#CAEDF6"/>
<path transform="translate(1161,1066)" d="m0 0 3 1v7l3 1-4 1-1 15 1-2 2 1-1 2v14l1 2-9 1-9 3 3-3 8-3h3l-1-8v-12l-3 1-39 3-27 2h-31v-1l11-3 1-3 3 1-2 1h21l31-2 8-1 27-1z" fill="#C8F1FB"/>
<path transform="translate(1146,582)" d="m0 0 1 4 14 95v7h-1l-5-30v-6h-2l4 25 3 24-2-2-9-60-6-38-1-8v-10z" fill="#C8F1FB"/>
<path transform="translate(903,1233)" d="m0 0 2 3 1 3 2-3 1 2 7 72v10l-1 10h-2l-2-8-5-52-3-32z" fill="#C8F1FB"/>
<path transform="translate(420,645)" d="m0 0 4 2-1 9-5 16-3 3-5-1-2-1-1-12h-2l-2 12-2 2-5-1 3-11 7-13 3-2 4 1v19l4-19z" fill="#C8F1FB"/>
<path transform="translate(371,732)" d="m0 0 4 2 17 16 8 7v2h-3l-2 5-10 2-7 1-5 2-11 1-1 3 10-3h3v2l7 2 3 2 8 2 4 4h-3l-4-2-40-8-2-2 4-2 18-2 22-3 2-2-9-11-9-10-4-6z" fill="#C8F0FA"/>
<path transform="translate(1340,1075)" d="m0 0h2l1 2v60l-1 24v22h-2l-2 35h-1l-1-34v-3l3-1v-99z" fill="#C8F1FB"/>
<path transform="translate(1192,69)" d="m0 0h8l9 3-1 4 5 5 2 4h2l7 8 1 3 3 1 15 15 2 1v2h2v2l4 2 5 5-6-1-12-6-5-8-2-1v-2h-2v-2l-3-1-7-8-4-4v-2h-2v-2l-4-2-11-11-6-4z" fill="#023F4B"/>
<path transform="translate(472,442)" d="m0 0 6 9 8 6 7 8 4 4 6 2 2-4 2 2 3 13-1 4-6-6-4 1-5 5-9 8-3 4h-2l-2-4 8-6 7-7 3-4-1-4-8-9-10-8h-4l-1-2z" fill="#02414C"/>
<path transform="translate(1151,381)" d="m0 0 2 1-11 9-4 4h-3v2l-5 4h-2l-2 4-3 1-2 4-16 16-8 7-4 6h-2l-1 5h-1v-8l2-7 6-3 13-11 8-8 7-6 4-8z" fill="#02404B"/>
<path transform="translate(1372,574)" d="m0 0 4 1v6l-7 10-5 5-5 3-10 2h-6l-8-7-6-6v-2l5 2 10 5h12l5-3 6-7z" fill="#C8F1FB"/>
<path transform="translate(525,761)" d="m0 0h4v6l-3 1h-8l-2 4h7l1 5-9 2-4 2v2h7l6-1 1 3-4 4-6 1-6-2-3-3 1-9 7-13 1-1z" fill="#C8F0F9"/>
<path transform="translate(406,867)" d="m0 0h10l1 2-4 9h-3l-1-6-6 1-2 4-1 4 4 4 3 2v6l-4 4-8-1-2-5 2-1h6l-5-4-2-2v-6l5-9z" fill="#CAEEF6"/>
<path transform="translate(1328,1397)" d="m0 0 2 1-4 4h-2v3l9-7 2-1-2 4-8 7-10 5-4 1h-17l-11-4-4-3v-3l9 1 12 3h8l9-3 9-6z" fill="#C8F0FA"/>
<path transform="translate(489,1326)" d="m0 0 10 2v3h-4v2l-11 7-8 3h-10l-10-4-4-4-3-5 1-2 5 1 7 6 5 2 9-1 9-4 5-1z" fill="#D3E3E6"/>
<path transform="translate(1098,1208)" d="m0 0h19l-1 2-12 2-36 3-17 1h-13l1-4 10-1 37-2z" fill="#C8F1FB"/>
<path transform="translate(1071,770)" d="m0 0 5 1 11 10 5 5v2h2l7 8 5 5 9 8 1 2v7l-5-5-7-8-17-16-8-7-6-6z" fill="#023D48"/>
<path transform="translate(895,1099)" d="m0 0 5 1 4 4v16l-3 6-3 3h-3l2 25 1 4v7l8 1v1h-5l2 10v11h-1l-2-13 1 29h-1l-3-28-4-42v-8h2l-1-21h2l1 8v13l3-2 1-3v-13l-2-5-5-1z" fill="#C8F1FB"/>
<path transform="translate(960,666)" d="m0 0h8l23 4 31 4 4 2v3l-14-1-45-7-7-2z" fill="#C8F1FB"/>
<path transform="translate(1450,356)" d="m0 0h3l1 3v7l-4 8-7 4h-8l-3-2 2-4 10-11h2l1-3z" fill="#035865"/>
<path transform="translate(440,1314)" d="m0 0 4 1 6 8 3 5-3 2 2 4-5-5-4-6-4 1-11 8-5 2h-11l-3-2 7-1-3-2 13-3 10-8z" fill="#D3E6EA"/>
<path transform="translate(579,1166)" d="m0 0 1 2 2 53v11l-2-1-3-19-2-24v-18l-5 1 1-2z" fill="#D6DFE0"/>
<path transform="translate(744,845)" d="m0 0 2 1v2h5l-3 1v26l-1 47h-3z" fill="#C8F1FB"/>
<path transform="translate(859,964)" d="m0 0 2 4-9 2-44 2h-13l-4-1v-3l54-2 11-1z" fill="#C8F1FB"/>
<path transform="translate(556,777)" d="m0 0 2 2 1 13v64l-4 2v-24z" fill="#D9DCDC"/>
<path transform="translate(937,680)" d="m0 0 2 1 3 23 2 24 1 2 15 1 30 1 5 2 1 3 3 2-4 1-3-4v-2h-26l-1 4-1-4-10 1-2 1h-9l-2-8-3-35-1-5z" fill="#C8F1FB"/>
<path transform="translate(470,777)" d="m0 0h1l-1 7-7 8-6 7h-2v2l-4 4h-2l-2 4h-2v2l-5 3h-2l2-6 5-6h2l2-4 10-10 1-2h2l2-4 4-4z" fill="#023D48"/>
<path transform="translate(380,690)" d="m0 0m-3 1h3l2 5-16 7-10 8-14 14 2-5 6-8-6 4 2-4 11-10 13-8z" fill="#C8F0FA"/>
<path transform="translate(436,776)" d="m0 0v3l-7 2h-5l3 7 5 5 1 5-2 2-11-11h-3l-4 15-5 25-1 3-3-1v-17h1v12h2v-11l3-7 3-14 3-7 3-3h2l1-4 5-2 8-1z" fill="#C8F1FB"/>
<path transform="translate(963,1214)" d="m0 0h1l1 8-4 1-34 1h-18v-4l16-1h38z" fill="#C8F1FB"/>
<path transform="translate(876,982)" d="m0 0 5 4 1 3 6 3-3 1 3 18v15l3 1-4 2-2 4-3 3-2-1 4-5-5-43-3-3z" fill="#C8F0FA"/>
<path transform="translate(884,992)" d="m0 0 5 2 4 6 3 8v10l-5 8h-3l-2-23z" fill="#08BFE2"/>
<path transform="translate(1261,602)" d="m0 0 14 2 6 1h18l1 4-6 2h-16l-15-2-4-3v-3z" fill="#C8F1FB"/>
<path transform="translate(389,1369)" d="m0 0 4 1 7 8 8 7 2 1h6l6-3 2 1-12 6h7l11-7 2 1-10 7-5 2-10-1-9-6-6-7z" fill="#D4E2E4"/>
<path transform="translate(729,845)" d="m0 0h12v3l-2 1-48 3h-11l1-4z" fill="#C8F1FB"/>
<path transform="translate(1153,990)" d="m0 0h7v11l2 23 1 21 1 6 3 1-4 3-1 7h-1l-5-54v-13l1-4z" fill="#C8F1FB"/>
<path transform="translate(382,848)" d="m0 0 10 2 10 1h12l10-1v2h-9v2l17-1-4 2-10 2h-23l-13-3 2-2-6-2z" fill="#C8F0F9"/>
<path transform="translate(957,834)" d="m0 0h1l1 8-3 1v5l2 1-3 4-2-10-34 1-7 1-2 1-1-8 2 1h42l3 1z" fill="#C8F1FB"/>
<path transform="translate(603,1484)" d="m0 0 2 1 3 38v5l-5 1-1-4-2-27v-13h1l1 5z" fill="#C8F1FB"/>
<path transform="translate(1274,1368)" d="m0 0 4 1-1 5-8 6-8 3-10 1-7-3-2-4h16l9-4z" fill="#D3E3E6"/>
<path transform="translate(551,873)" d="m0 0 2 4 5 2 2 4v25h-1l-1-22-3-6-2-1-1 12-1 43-1 3h-2l-1-7 2-44z" fill="#C8F1FB"/>
<path transform="translate(945,747)" d="m0 0h1l3 20 5 48v7h-2l-2-10-2-16-2-26-1-7z" fill="#C8F1FB"/>
<path transform="translate(1313,657)" d="m0 0 5 1 8 4 6 2h9l6-1 3 2-2 4-4 1h-14l-10-4-6-3 2-4-6 3 2-4z" fill="#C8F0FA"/>
<path transform="translate(794,622)" d="m0 0 9 1 13 4 5 1v2h2l1 3h-12l-18-6-2-4z" fill="#D2E3E7"/>
<path transform="translate(1074,496)" d="m0 0 1 2h2l4 5 8 7 5 4 5 6 13 10 4 4-1 3-5-1-1-3-3-1-2-5h-2v-2h-2v-2l-4-2-7-6v-2l-4-2-8-8-4-3z" fill="#023D49"/>
<path transform="translate(152,677)" d="m0 0 4 1 4 5 4 2v3l5 2 1 3 2 1-1 1h-10l-6-5-3-6z" fill="#02424E"/>
<path transform="translate(435,1373)" d="m0 0 5 1 4 7-1 4-4-5h-4v2l-10 5-6 4h-9l4-3 9-4 5-5z" fill="#D5E0E2"/>
<path transform="translate(1337,1388)" d="m0 0 6 1 9 4 1 3-2 3-6-1-6-3h-2v2l-5 3-6 5h-2v-3l5-4z" fill="#C8EFF9"/>
<path transform="translate(420,645)" d="m0 0 4 2-1 9-4 14-4 1-1 2h-3v-2l2-1 4-21z" fill="#D3E2E5"/>
<path transform="translate(1184,67)" d="m0 0h5v2l-10 8-14 13-5 6h-7l14-14 8-7z" fill="#023D48"/>
<path transform="translate(1187,1378)" d="m0 0 5 1 17 8v2l4 1v2l-13-1-11-6-3-3z" fill="#D6E3E5"/>
<path transform="translate(1159,1240)" d="m0 0 4 1-2 16-2 30-1 7-2 1v-27l2-19z" fill="#C9EFF8"/>
<path transform="translate(702,124)" d="m0 0 4 1 7 8 5 6 5 5 4 3v2h4v2l-7 1-2-4h-2l-7-8-7-7-5-6z" fill="#023D49"/>
<path transform="translate(849,121)" d="m0 0h6l-2 5-9 10-7 8h-2l-2 4h-4l2-4 5-6 1-2h2l2-4 7-9z" fill="#023D48"/>
<path transform="translate(1144,588)" d="m0 0 2 3 1 3 1 13 2 8 2 17 2 12-2 1-3-13-4-25v-6h-2v-12z" fill="#D8DDDD"/>
<path transform="translate(851,550)" d="m0 0h4v40l-1 8h-1l-2-30z" fill="#D6DEE0"/>
<path transform="translate(443,843)" d="m0 0 8 2-4 3-12 5-15 2h-6l1-3h9v-2l15-5z" fill="#CCECF3"/>
<path transform="translate(744,1066)" d="m0 0h10v1l-5 1v32l-1 4-3-1-1-26z" fill="#C8F1FB"/>
<path transform="translate(1436 1e3)" d="m0 0h1v8h2v23l-1 12-3 2v-33z" fill="#CDEAF1"/>
<path transform="translate(394,1312)" d="m0 0 3 1 7 8 7 6 2 1v2l4 1v1h-10l-9-8-3-5z" fill="#D6E2E4"/>
<path transform="translate(1449,352)" d="m0 0h2l1 4-5 3-5 5-9 10v2l-5-2-1-3 4-1v-2l5-5 11-10z" fill="#02404B"/>
<path transform="translate(283,253)" d="m0 0 4 4 4 7 7 6 8 4-2 5-4 1-3-5v-2l-4-2-5-5-9-8z" fill="#023E49"/>
<path transform="translate(583,1265)" d="m0 0h2l2 20v27l-1-4h-2l-1-15z" fill="#D4E1E4"/>
<path transform="translate(1374,152)" d="m0 0 5 2 1 2-9 3-2 4-12 11-1 3-4-2v-2l5-5 4-5 11-9z" fill="#023F4A"/>
<path transform="translate(312,752)" d="m0 0h3l-1 7-7 16-4 2-4-1 4-5 5-13z" fill="#D3E2E6"/>
<path transform="translate(1210,352)" d="m0 0h2l1 5h2l3 4v3l4 1 5 7v2h2l2 4-6 2-1-6-5-4-9-11-2-2 1-4z" fill="#023D48"/>
<path transform="translate(553,653)" d="m0 0 3 1-1 9v51l-2 3-1-51z" fill="#D9DCDC"/>
<path transform="translate(260,508)" d="m0 0 7 6 4 5 5 3v2l4 2 3 2-2 5-4-1-6-8-6-5v-2l-4-2-4-3v-2z" fill="#023E49"/>
<path transform="translate(166,413)" d="m0 0 1 3h2l4 4 6 5v3l4 2v2l4 2v4l-1 2h-2l-3-5-2-4h-2v-2h-2l-4-5-6-5-3-1v-2z" fill="#023F4A"/>
<path transform="translate(860,693)" d="m0 0h24l10 2 3 2-9-1h-26l-15 4-18 6-3-1 24-9z" fill="#C8F1FB"/>
<path transform="translate(1290,233)" d="m0 0 4 1 4 4h-5l-16 16-1 7-5-3 2-5 7-7 1-2h2l2-4 4-4z" fill="#023E49"/>
<path transform="translate(904,615)" d="m0 0 2 1-1 3-7 5-3 1-3 3-8 2-5-1 3-5 10-3 7-4h5z" fill="#CCEBF2"/>
<path transform="translate(1082,716)" d="m0 0 2 1-1 5-7 7-7 8-3 4-4-1 3-6 9-9 7-8z" fill="#023D48"/>
<path transform="translate(838,528)" d="m0 0 5 1 4 4v6l-2 4h-3l-1-3-7-4-1-3z" fill="#02434F"/>
<path transform="translate(439,694)" d="m0 0h6l10 5 5 4v5l-4-1-12-6-3-3-3-2z" fill="#D5E0E3"/>
<path transform="translate(841,622)" d="m0 0v3l-1 3 4-1-5 5-4 2-14 1-5-1v-1l7-1v-2l-2-1 14-2z" fill="#C8F1FB"/>
<path transform="translate(1029,175)" d="m0 0 7 6 13 13 3 1-2 4-4 2-3-7-3-3v-2l-4-2-7-7-3-2z" fill="#023D48"/>
<path transform="translate(623,625)" d="m0 0h3l-2 6-18 18-4 1 1-4 11-11 7-8z" fill="#023D48"/>
<path transform="translate(398,784)" d="m0 0h3v10h-1v-8l-11 8-13 11h-4l2-4 14-14 1 2-1 2 9-6z" fill="#C8F1FB"/>
<path transform="translate(1153,652)" d="m0 0h2l4 22 1 14h2v16l-2-2-5-31-2-14z" fill="#D7DDDD"/>
<path transform="translate(536,232)" d="m0 0 5 4 1 3 8 7 4 3v2l3 1-1 5h-3l-4-6v-2l-4-2-8-8-2-1v-2h-2v-2z" fill="#023F4A"/>
<path transform="translate(895,1102)" d="m0 0 5 1 2 5v13l-3 5h-2z" fill="#08BFE2"/>
<path transform="translate(420,278)" d="m0 0 6 1v2l-6 3-3 3h-2v2l-8 7-3 4-1 4-4-1 2-6h2l2-5h2l1-3 8-7h2z" fill="#023F4A"/>
<path transform="translate(301,752)" d="m0 0h5l1 2-2 4h-2l-4 16-1 3h-2l-1-3h2v-2h-2l-1-4 3-6 1-7z" fill="#D6DFE1"/>
<path transform="translate(561,902)" d="m0 0h1v33l1-33h1l1 19v16l-1 4 4 1h-8v-33z" fill="#CBF1FB"/>
<path transform="translate(1314,658)" d="m0 0 3 1-4 7-5 3-9 6-4 2h-6l3-3 7-3 5-5z" fill="#D7DEDF"/>
<path transform="translate(493,206)" d="m0 0 3 2-1 3-8 7h-2l-1 3-8 7-1 3-4-2 2-4 10-9z" fill="#023D48"/>
<path transform="translate(394,1305)" d="m0 0 2 2 4 8-1 2-5-5 1 6-2-3-1-4-9 3-8 4-10 3h-14v-1l17-2 9-4 12-6h5z" fill="#C8F0FA"/>
<path transform="translate(965,1338)" d="m0 0 2 3-1 31-1 12-2 3v-23l1-23z" fill="#C8F1FB"/>
<path transform="translate(1279,1404)" d="m0 0 9 1 7 2v2l5 1v3l-13-1-8-5z" fill="#D3E3E6"/>
<path transform="translate(297,758)" d="m0 0 1 4-3 6v4h2v3l3-9 3-8 1 3-2 9 3-6 1 3-4 7-2 2 4 1-1 2h-7l-2-3v-5l-3 1v-8l2 3z" fill="#C8F1FB"/>
<path transform="translate(1126,273)" d="m0 0h3l7 8 13 13-1 4-4-2-3-6-2-1v-2l-4-2-7-6-4-3z" fill="#023E49"/>
<path transform="translate(1040,211)" d="m0 0 3 1v2h-3l-2 4-15 15-5 1 2-4 4-2 1-3h2l2-4 4-4h2l2-4z" fill="#02404C"/>
<path transform="translate(1372,574)" d="m0 0 4 1v6l-4 6-8 6-1-3z" fill="#D4E2E5"/>
<path transform="translate(581,1208)" d="m0 0h1l1 12h2l13 1 8 3-3 2-20-2v7h-1l-1-10z" fill="#C8F1FB"/>
<path transform="translate(461,708)" d="m0 0 2 2 3 5 8 7 10 9 1 4-5-2-6-7-4-3v-2l-4-2-6-5z" fill="#023D48"/>
<path transform="translate(1254,667)" d="m0 0 7 1 2 3 16 4 1 3-10-1-16-5-1-3z" fill="#D5DFE1"/>
<path transform="translate(485,737)" d="m0 0h2l4 17 1 16v14h-1l-1-5h-1l-1-23-2-11-1-1z" fill="#D8DCDC"/>
<path transform="translate(1379,1382)" d="m0 0h4l-1 5-11 9-7 2 1-4h2v-2l8-6z" fill="#D5E0E2"/>
<path transform="translate(1120,712)" d="m0 0 3 3 3 17 3 12 1 5v8l-2-1-4-18-1-7z" fill="#C8F1FB"/>
<path transform="translate(967,601)" d="m0 0h4l1 4-3 4-9 3-5 1 1-5 9-5z" fill="#D3E2E5"/>
<path transform="translate(1237,1373)" d="m0 0 6 1 6 3-4 1-1 1-2 1-5 1-4 4-2-1 3-4-6 3-2-1z" fill="#CCEBF3"/>
<path transform="translate(910,1287)" d="m0 0h1l2 7 2 18v18h-2l-3-36z" fill="#D9DCDC"/>
<path transform="translate(579,1166)" d="m0 0 1 2 1 24v16h-1l-2-32h-1l-1 12h-1v-18l-5 1 1-2z" fill="#C8F0FA"/>
<path transform="translate(1163,1133)" d="m0 0h1l1 16-1 8h14v1l-14 1-4 1 1-3v-20z" fill="#C8F1FB"/>
<path transform="translate(941,638)" d="m0 0 3 1 7 8 5 5 5 6-1 2-6-4-9-9-5-7z" fill="#023D48"/>
<path transform="translate(583,1247)" d="m0 0h2l2 24v14h-1l-1-10v-10h-2v9h-1l-1-18h1z" fill="#C8F1FB"/>
<path transform="translate(422,1383)" d="m0 0 2 1-12 6h7l11-7 2 1-10 7-5 2-10-1-5-3 2-1 4 1-3-5 5 2h6z" fill="#C8F1FB"/>
<path transform="translate(1400,676)" d="m0 0 2 1-2 4-8 7-1 2h-2l-2 4-5 4h-2l2-5 14-14z" fill="#023D48"/>
<path transform="translate(1313,1407)" d="m0 0m-18 1h18l-3 2h-2v2l8-2 3-1-1 3-7 2h-17l-4-2 10 1v-3l-5-1z" fill="#C8F1FB"/>
<path transform="translate(907,1252)" d="m0 0 2 1 2 15v15l-2 4-3-34z" fill="#D9DCDC"/>
<path transform="translate(384,1367)" d="m0 0 5 1 3 9-3-3-2-4-6 1-11 6-4 1h-8l-10-3 3-1 3 1h14l10-5z" fill="#C8F1FB"/>
<path transform="translate(865,623)" d="m0 0 16 2-1 3 4 2-2 1-16-1 1-3 3-1-5-1z" fill="#C8F1FB"/>
<path transform="translate(1389,409)" d="m0 0 4 2 3 3-1 2-2-1-9 7-4 4-4-1 3-4h2v-2h2v-2l5-5z" fill="#023E49"/>
<path transform="translate(1317,876)" d="m0 0h15l-4 2v7l1 5v9h-2l-3-12v-9l-7-1z" fill="#C8F1FB"/>
<path transform="translate(440,1314)" d="m0 0 4 1 6 8 3 5-3 2 2 4-5-5-4-6-3-2 3-4z" fill="#C8F1FB"/>
<path transform="translate(407,649)" d="m0 0h4v5l-2 3-3 1-2 4-2 10-3-2 1-6 3-6 2-7z" fill="#D6DEDF"/>
<path transform="translate(1153,990)" d="m0 0h7v23l-2 2-2-7v-13l1-4z" fill="#CBECF4"/>
<path transform="translate(1272,527)" d="m0 0 4 1-1 4-5 4h-2l-2 4-2 2h-3l2-5 4-5z" fill="#023D48"/>
<path transform="translate(403,888)" d="m0 0h3v7l-3 2-8-1-2-5 2-1 9 1z" fill="#D3E2E6"/>
<path transform="translate(900,1174)" d="m0 0h1l2 14v15l-2 1-2-21v-8z" fill="#D9DCDC"/>
<path transform="translate(1338,1389)" d="m0 0 3 1v3l-3 1-1 3-5 3-6 5h-2v-3l5-4 4-5z" fill="#D7DEDF"/>
<path transform="translate(484,739)" d="m0 0h1l3 11 1 6 1 22h1v9l-2-1-1-4-1-24-2-10-1-2z" fill="#D4F4FB"/>
<path transform="translate(745,1076)" d="m0 0 2 1 1 27-3-1-1-26z" fill="#D3E2E5"/>
<path transform="translate(887,1011)" d="m0 0h1v15l3 1-4 2-2 4-3 3-2-1 4-5-1-7v-8h1l1 7h1z" fill="#C8F1FB"/>
<path transform="translate(1156,1268)" d="m0 0 3 3v16l-1 7-2 1z" fill="#CAEEF7"/>
<path transform="translate(525,761)" d="m0 0h4v6l-3 1-8-1-1-3-2-2z" fill="#C8F1FB"/>
<path transform="translate(391,1302)" d="m0 0 3 1v5l-9 3-3 2-3-1 5-6z" fill="#D5E0E2"/>
<path transform="translate(514,763)" d="m0 0 4 1 1 2-4 4v7l-3 2-3-1 2-6z" fill="#D9DCDC"/>
<path transform="translate(332,742)" d="m0 0 1 3-3 11-1 7v26l-2-4v-30z" fill="#C8F1FB"/>
<path transform="translate(1297,1180)" d="m0 0 2 3v2h10l6-1h11v1l-23 3-8 2 2-6z" fill="#C8F1FB"/>
<path transform="translate(878,916)" d="m0 0h1l1 12 15-1 9-1-2 2-17 2-10 1v-4h2z" fill="#C8F1FB"/>
<path transform="translate(439,741)" d="m0 0 2 1-7 9-11 11 1 2-4-1v-2l8-7 5-6v-3z" fill="#C8F1FB"/>
<path transform="translate(1207,1133)" d="m0 0h1l2 34 8 1v1h-10l-1-1z" fill="#C8F1FB"/>
<path transform="translate(883 1e3)" d="m0 0 3 1 1 5v12h-3l-1-7z" fill="#D9DCDC"/>
<path transform="translate(516,768)" d="m0 0 1 2-1 2h7l1 5-9 2-4 1 3-3v-7z" fill="#C8F1FB"/>
<path transform="translate(1232,1380)" d="m0 0h2l-2 4-5 5-6 1 1-4 3-3z" fill="#D6DFE0"/>
<path transform="translate(290,752)" d="m0 0h5l-1 7-1 5h-1l1-10h-3l-2 18-3 2 1-10 3-11z" fill="#C8F1FB"/>
<path transform="translate(1095,732)" d="m0 0 11 1 10 2-1 2-18-1-3-1z" fill="#C8F1FB"/>
<path transform="translate(857,643)" d="m0 0h1v6h2v10l-3 1-2-1 1-13z" fill="#D4E1E4"/>
<path transform="translate(1037,731)" d="m0 0 3 1 14 1v3l-13-1v17h-1l-1-16z" fill="#C8F1FB"/>
<path transform="translate(603,1502)" d="m0 0 2 2 1 11v11l-3-3z" fill="#D9DCDC"/>
<path transform="translate(920,1382)" d="m0 0h1l2 16-2 7h-1l-1-9v-13z" fill="#D9DCDC"/>
<path transform="translate(892,1104)" d="m0 0 3 1v21l-2-2-1-11z" fill="#D9DCDC"/>
<path transform="translate(908,610)" d="m0 0v3h-2v2l4-1-2 4-5 4-7 4-2-1 11-7-1-1-3-1z" fill="#C8F1FB"/>
<path transform="translate(923,1423)" d="m0 0 2 1 2 20-3 1-1-7z" fill="#D9DCDC"/>
<path transform="translate(522,1117)" d="m0 0 5 1 4 4 3 8 1 4v14h-1l-2-17-5-10z" fill="#C8F1FB"/>
<path transform="translate(1155,1316)" d="m0 0h1l-1 24-2 1v-19z" fill="#C8F1FB"/>
<path transform="translate(399,881)" d="m0 0 5 4 3 2v6h-1v-5l-2 1v2l-3-1-5-5h3z" fill="#C8F1FB"/>
<path transform="translate(846,617)" d="m0 0 2 1-1 5-2 4-5 1 1-4 2-5z" fill="#D7DDDE"/>
<path transform="translate(1139,1197)" d="m0 0 1 4-4 4-15 5-1 2h-2l-1-3 7-2 12-5z" fill="#C8F1FB"/>
<path transform="translate(911,608)" d="m0 0 5 1 1 4-11 2v-2l2-1 1-3z" fill="#D5E0E2"/>
<path transform="translate(1211,1279)" d="m0 0h1l1 13 1 4-1 2-1 13h-1z" fill="#D3F3FB"/>
<path transform="translate(1375,1247)" d="m0 0 2 1-8 5-8 4-6 4 2-4 10-6z" fill="#C8F1FB"/>
<path transform="translate(904,615)" d="m0 0 2 1-1 3-7 5-5 1v-3l8-5h3z" fill="#D9DCDC"/>
<path transform="translate(888,993)" d="m0 0 4 2 4 7 1 5v11h-1l-2-13-5-10z" fill="#C8F1FB"/>
<path transform="translate(453,699)" d="m0 0 5 2 2 2v5l-4-1-4-2 2-4z" fill="#C8F1FB"/>
<path transform="translate(414,868)" d="m0 0 2 1-1 6-4 1-1-1v-6z" fill="#D6DEE0"/>
<path transform="translate(373,768)" d="m0 0m-6 0 6 1-2 2-6 2h-4l-1-3z" fill="#D9DCDC"/>
<path transform="translate(1217,1405)" d="m0 0h2v12l-2 2-1-3v-10z" fill="#D9DCDC"/>
<path transform="translate(743,1007)" d="m0 0h4l-1 10-3 1z" fill="#C8F1FB"/>
<path transform="translate(747,962)" d="m0 0 5 1 3 5h-8z" fill="#06A1BD"/>
<path transform="translate(1273,953)" d="m0 0h8l3 2-1 1h-12l-2-2z" fill="#C8F1FB"/>
<path transform="translate(424,851)" d="m0 0 8 1v1l-12 2h-6l1-3z" fill="#D9DCDC"/>
<path transform="translate(443,843)" d="m0 0 8 2-4 3-4 1v-2l-4-1z" fill="#C8F0FA"/>
<path transform="translate(1374,428)" d="m0 0h1l1 8-4-2-4-3v-2h5z" fill="#024451"/>
<path transform="translate(935,870)" d="m0 0 2 1-12 12v-3l6-7z" fill="#CDEAF1"/>
<path transform="translate(1320,1406)" d="m0 0 2 1-8 5h-6v-2l11-3z" fill="#D9DCDC"/>
<path transform="translate(916,1351)" d="m0 0h2l1 9-1 6h-1l-1-6z" fill="#D9DCDC"/>
<path transform="translate(514,763)" d="m0 0 4 1 1 2-4 4h-2z" fill="#D6DEE0"/>
<path transform="translate(1346,1393)" d="m0 0 6 1 1 2-1 2-8-2v-2z" fill="#D9DCDC"/>
<path transform="translate(240,193)" d="m0 0h3v2l-10 6 1-5 3 1v-3z" fill="#036271"/>
<path transform="translate(436,1372)" d="m0 0 5 1 7 8-1 3-2-1v-3h-2l-4-6z" fill="#C8F0F9"/>
</svg>
